<?xml version="1.0" encoding="UTF-8" standalone="no"?>
<!-- Created with Inkscape (http://www.inkscape.org/) -->

<svg
   width="6.8757968mm"
   height="6.8757968mm"
   viewBox="0 0 6.8757968 6.8757968"
   version="1.1"
   id="svg5"
   xml:space="preserve"
   inkscape:version="1.2.1 (9c6d41e410, 2022-07-14, custom)"
   sodipodi:docname="drawing.svg"
   xmlns:inkscape="http://www.inkscape.org/namespaces/inkscape"
   xmlns:sodipodi="http://sodipodi.sourceforge.net/DTD/sodipodi-0.dtd"
   xmlns="http://www.w3.org/2000/svg"
   xmlns:svg="http://www.w3.org/2000/svg"><sodipodi:namedview
     id="namedview7"
     pagecolor="#505050"
     bordercolor="#eeeeee"
     borderopacity="1"
     inkscape:showpageshadow="0"
     inkscape:pageopacity="0"
     inkscape:pagecheckerboard="0"
     inkscape:deskcolor="#505050"
     inkscape:document-units="mm"
     showgrid="false"
     inkscape:zoom="4.3893395"
     inkscape:cx="507.93519"
     inkscape:cy="340.48403"
     inkscape:window-width="1912"
     inkscape:window-height="986"
     inkscape:window-x="4"
     inkscape:window-y="4"
     inkscape:window-maximized="0"
     inkscape:current-layer="layer1" /><defs
     id="defs2" /><g
     inkscape:label="Layer 1"
     inkscape:groupmode="layer"
     id="layer1"
     transform="translate(-121.60231,-85.401144)"><g
       id="g1020"><circle
         style="fill:#d42c29;fill-opacity:1;stroke-width:0.264583"
         id="path228-6-6"
         cx="125.04021"
         cy="88.839043"
         r="3.4378984"
         inkscape:export-filename="button_unfocused.svg"
         inkscape:export-xdpi="96"
         inkscape:export-ydpi="96" /><path
         id="path292-6"
         style="fill:#ffffff;stroke-width:0.120304"
         inkscape:transform-center-x="0.35804878"
         inkscape:transform-center-y="0.10460776"
         d="m 123.8894,87.335042 c -0.25494,-0.0022 -0.34047,0.239597 -0.3736,0.789732 1.07256,0.660091 1.071,0.839311 -0.0172,1.469971 0.031,0.7314 0.18401,0.88537 0.75707,0.63982 0.7432,-1.22713 0.89847,-1.22419 1.60931,0.0235 0.51535,0.21597 0.65514,0.0337 0.69974,-0.70421 -1.07256,-0.66008 -1.07101,-0.8393 0.0171,-1.469963 -0.031,-0.731396 -0.18402,-0.885373 -0.75707,-0.639824 -0.74319,1.227127 -0.89848,1.224197 -1.60931,-0.02349 -0.13151,-0.05517 -0.23898,-0.08476 -0.32613,-0.08553 z" /></g></g></svg>
