<?xml version="1.0" encoding="UTF-8" standalone="no"?>
<!-- Created with Inkscape (http://www.inkscape.org/) -->

<svg
   width="6.8757968mm"
   height="6.8757968mm"
   viewBox="0 0 6.8757968 6.8757968"
   version="1.1"
   id="svg5"
   xml:space="preserve"
   inkscape:version="1.2.1 (9c6d41e410, 2022-07-14, custom)"
   sodipodi:docname="drawing.svg"
   xmlns:inkscape="http://www.inkscape.org/namespaces/inkscape"
   xmlns:sodipodi="http://sodipodi.sourceforge.net/DTD/sodipodi-0.dtd"
   xmlns="http://www.w3.org/2000/svg"
   xmlns:svg="http://www.w3.org/2000/svg"><sodipodi:namedview
     id="namedview7"
     pagecolor="#505050"
     bordercolor="#eeeeee"
     borderopacity="1"
     inkscape:showpageshadow="0"
     inkscape:pageopacity="0"
     inkscape:pagecheckerboard="0"
     inkscape:deskcolor="#505050"
     inkscape:document-units="mm"
     showgrid="false"
     inkscape:zoom="4.3893395"
     inkscape:cx="507.93519"
     inkscape:cy="340.48403"
     inkscape:window-width="1912"
     inkscape:window-height="986"
     inkscape:window-x="4"
     inkscape:window-y="4"
     inkscape:window-maximized="0"
     inkscape:current-layer="layer1" /><defs
     id="defs2" /><g
     inkscape:label="Layer 1"
     inkscape:groupmode="layer"
     id="layer1"
     transform="translate(-138.51826,-85.476103)"><g
       id="g1039"><circle
         style="fill:#5ad079;fill-opacity:1;stroke-width:0.264583"
         id="path228-6-5-3-9"
         cx="141.95616"
         cy="88.914001"
         r="3.4378984"
         inkscape:export-filename="button_unfocused.svg"
         inkscape:export-xdpi="96"
         inkscape:export-ydpi="96" /><g
         id="g510"
         transform="translate(26.622752,-14.583494)"><path
           id="path292-5"
           style="fill:#ffffff;stroke-width:0.113027"
           inkscape:transform-center-x="0.85762625"
           inkscape:transform-center-y="0.33927806"
           d="m 116.9201,101.62958 c -0.23779,-0.0987 -0.69759,0.0625 -1.57157,0.40353 -1.06904,0.41716 -1.48465,0.6067 -1.25252,0.85438 0.20867,-0.0964 0.48403,-0.20672 0.82698,-0.34055 1.74793,-0.68208 1.83869,-0.64444 1.81204,0.75191 -0.005,0.27006 -0.0131,0.48896 -0.0344,0.66167 0.40398,0.0119 0.44397,-0.33536 0.46,-1.17551 0.0133,-0.69817 -0.003,-1.05675 -0.24048,-1.15543 z" /><path
           id="path292-5-5"
           style="fill:#ffffff;stroke-width:0.0957342"
           inkscape:transform-center-x="0.72640043"
           inkscape:transform-center-y="0.28736543"
           d="m 116.65319,101.94636 c -0.20141,-0.0836 -0.59086,0.0529 -1.33112,0.34179 -0.90548,0.35334 -1.25751,0.51388 -1.06089,0.72366 0.17674,-0.0817 0.40997,-0.17509 0.70045,-0.28844 1.48051,-0.57773 1.55738,-0.54584 1.53481,0.63687 -0.004,0.22874 -0.0111,0.41415 -0.0291,0.56043 0.34217,0.0101 0.37604,-0.28405 0.38962,-0.99566 0.0113,-0.59135 -0.003,-0.89507 -0.20369,-0.97865 z" /><path
           id="path292-5-3"
           style="fill:#ffffff;stroke-width:0.113027"
           inkscape:transform-center-x="-0.85762822"
           inkscape:transform-center-y="-0.33928168"
           d="m 113.74671,105.36541 c 0.2378,0.0987 0.6976,-0.0625 1.57157,-0.40353 1.06904,-0.41716 1.48465,-0.6067 1.25252,-0.85439 -0.20866,0.0964 -0.48403,0.20673 -0.82698,0.34056 -1.74793,0.68208 -1.83869,0.64443 -1.81204,-0.75191 0.005,-0.27006 0.0131,-0.48896 0.0344,-0.66167 -0.40398,-0.0119 -0.44397,0.33536 -0.45999,1.17551 -0.0133,0.69817 0.003,1.05675 0.24047,1.15543 z" /><path
           id="path292-5-5-6"
           style="fill:#ffffff;stroke-width:0.0957342"
           inkscape:transform-center-x="-0.72640477"
           inkscape:transform-center-y="-0.28736496"
           d="m 113.98785,105.04897 c 0.20141,0.0836 0.59086,-0.0529 1.33112,-0.34179 0.90548,-0.35334 1.25751,-0.51388 1.06089,-0.72366 -0.17674,0.0817 -0.40997,0.17509 -0.70045,0.28844 -1.48051,0.57773 -1.55738,0.54584 -1.53481,-0.63687 0.004,-0.22874 0.0111,-0.41415 0.0291,-0.56043 -0.34217,-0.0101 -0.37604,0.28405 -0.38962,0.99566 -0.0113,0.59135 0.003,0.89507 0.20369,0.97865 z" /></g></g></g></svg>
