<svg xmlns="http://www.w3.org/2000/svg" width="520" height="64"><path d="M0 64V22h44v-2H0V0h64v64H44V42H20v2h22v20zM76 0h42v44h2V0h20v64H76c.039-19.975 1.215-20 22-20V0h-2v44.034L76 64zM216 0v42h-44v2h44v20h-64V0c19.975.039 20 1.215 20 22h44v-2h-44.034L152 0ZM292 64V22h-44v-2h44V0h-64v42.012L248 42h24v2.094h-44L227.991 64zM324.313 64c0-43.883.182-.11-.092-44H368V0h-64c0 63.768-.009.11-.009 64zM380 64h42V20h2v44h20V0h-64c.039 19.975 1.215 20 22 20v44h-2V19.966L380 0ZM520 0v42h-44v2h44v20h-64V0c19.975.039 20 1.215 20 22h44v-2h-44.034L456 0Z" style="fill:#535d6c"/><path style="fill:#535d6c" d="M332.35 64c0-44.008-.004-.022-.004-44H368V0h-64c0 63.768-.009.11-.009 64z"/><path d="M334.994 64s-.003-.022-.003-44h32.716V0H304c0 63.768-.009.11-.009 64z" style="fill:#535d6c"/><path style="fill:#535d6c" d="M347.679 0c0 43.883-.183.11.091 44h-43.779v20h64c0-63.768.01-.11.01-64z"/><path d="M339.642 0c0 44.008.003.022.003 44h-35.654v20h64c0-63.768.009-.11.009-64z" style="fill:#535d6c"/><path style="fill:#535d6c" d="M336.997 0s.003.022.003 44h-32.716v20h63.707c0-63.768.009-.11.009-64z"/></svg>