<svg xmlns="http://www.w3.org/2000/svg" height="40" viewBox="0 96 960 960" width="40"><path d="M324.073 618.073h311.854q18.5 0 31.287-12.82Q680 592.433 680 573.883t-12.786-31.253q-12.787-12.703-31.287-12.703H324.073q-18.5 0-31.287 12.82Q280 555.567 280 574.117t12.786 31.253q12.787 12.703 31.287 12.703Zm156.156 373.754q-86.643 0-162.306-32.584Q242.26 926.66 185.8 870.2q-56.46-56.46-89.043-132.121-32.584-75.661-32.584-162.36 0-86.7 32.584-162.413 32.583-75.712 88.984-131.859 56.401-56.146 132.089-88.899 75.689-32.752 162.42-32.752t162.488 32.723q75.758 32.723 131.876 88.82 56.118 56.096 88.854 131.93 32.736 75.835 32.736 162.554 0 86.695-32.752 162.352-32.753 75.656-88.899 131.948-56.147 56.291-131.914 88.997-75.767 32.707-162.41 32.707Z"/></svg>