<?xml version="1.0" encoding="UTF-8" standalone="no"?>
<svg
   fill="white"
   height="48"
   width="48"
   version="1.1"
   id="svg1"
   sodipodi:docname="raven.svg"
   inkscape:version="1.3.2 (091e20ef0f, 2023-11-25, custom)"
   xmlns:inkscape="http://www.inkscape.org/namespaces/inkscape"
   xmlns:sodipodi="http://sodipodi.sourceforge.net/DTD/sodipodi-0.dtd"
   xmlns="http://www.w3.org/2000/svg"
   xmlns:svg="http://www.w3.org/2000/svg">
  <defs
     id="defs1" />
  <sodipodi:namedview
     id="namedview1"
     pagecolor="#ffffff"
     bordercolor="#000000"
     borderopacity="0.25"
     inkscape:showpageshadow="2"
     inkscape:pageopacity="0.0"
     inkscape:pagecheckerboard="0"
     inkscape:deskcolor="#d1d1d1"
     inkscape:zoom="8"
     inkscape:cx="-24.75"
     inkscape:cy="32.5"
     inkscape:window-width="1920"
     inkscape:window-height="1058"
     inkscape:window-x="0"
     inkscape:window-y="0"
     inkscape:window-maximized="1"
     inkscape:current-layer="svg1" />
  <path
     id="path1"
     style="fill:#000000"
     d="M 22.78125 5.7304688 C 22.547917 5.7304688 22.315364 5.7963551 22.082031 5.9296875 C 21.848698 6.06302 21.682031 6.2141935 21.582031 6.3808594 L 9.7324219 26.179688 C 9.5657553 26.479682 9.5657553 26.79753 9.7324219 27.130859 C 9.8990861 27.464191 10.164583 27.630859 10.53125 27.630859 L 17.058594 27.630859 C 17.376986 27.662871 17.623047 27.952813 17.623047 28.308594 L 17.623047 28.412109 L 17.625 28.412109 L 17.625 28.982422 L 17.636719 28.994141 L 15.982422 40.480469 C 15.915752 40.847131 15.981643 41.14753 16.181641 41.380859 C 16.381637 41.614191 16.664583 41.730469 17.03125 41.730469 C 17.264583 41.730469 17.499089 41.664579 17.732422 41.53125 C 17.965754 41.397917 18.132422 41.246745 18.232422 41.080078 L 30.03125 21.230469 C 30.197916 20.930469 30.191147 20.614583 30.007812 20.28125 C 29.824483 19.947918 29.548304 19.78125 29.181641 19.78125 L 23.427734 19.78125 L 23.421875 19.775391 L 22.759766 19.775391 L 22.759766 19.771484 C 22.434547 19.746824 22.179688 19.45285 22.179688 19.091797 L 22.179688 18.988281 L 22.177734 18.988281 L 22.177734 18.429688 L 23.832031 6.9804688 C 23.898701 6.6138041 23.832812 6.3134101 23.632812 6.0800781 C 23.432816 5.8467464 23.147915 5.7304688 22.78125 5.7304688 z M 21.173828 13.390625 C 21.377722 13.383025 21.536974 13.445085 21.652344 13.574219 C 21.767713 13.703356 21.809839 13.873203 21.779297 14.083984 L 21.171875 19.648438 L 21.171875 19.658203 L 21.171875 20.371094 L 21.173828 20.371094 L 21.173828 20.501953 C 21.173828 20.959399 21.496161 21.332041 21.908203 21.363281 L 21.908203 21.367188 L 22.716797 21.367188 L 24.982422 21.283203 C 25.186315 21.275603 25.341337 21.366146 25.449219 21.552734 C 25.5571 21.739326 25.56781 21.918979 25.480469 22.09375 L 24.753906 23.449219 C 23.999362 23.146881 24.530835 22.267219 23.873047 23.013672 C 23.178319 23.802043 24.114476 23.047196 24.476562 23.966797 L 23.578125 25.640625 C 22.774246 25.351346 23.333343 24.434129 22.666016 25.191406 C 21.960691 25.991798 22.935878 25.201211 23.285156 26.1875 L 22.115234 28.371094 C 21.321962 28.078935 21.874299 27.170793 21.208984 27.925781 C 20.506795 28.72262 21.472937 27.941955 21.826172 28.908203 L 20.689453 31.027344 C 19.69102 30.796943 20.34207 29.745018 19.640625 30.541016 C 18.930431 31.346938 19.924724 30.53672 20.267578 31.554688 C 20.288488 31.616774 20.30278 31.675964 20.3125 31.730469 L 19.271484 33.673828 C 19.218844 33.771078 19.129329 33.860447 19.001953 33.941406 C 18.874578 34.022366 18.746935 34.065505 18.617188 34.070312 C 18.413293 34.077912 18.25404 34.015853 18.138672 33.886719 C 18.023302 33.757582 17.979224 33.587738 18.009766 33.376953 L 18.615234 27.798828 L 18.611328 27.794922 L 18.611328 27.072266 L 18.609375 27.072266 L 18.609375 26.941406 C 18.609375 26.483964 18.287045 26.111318 17.875 26.080078 L 17.875 26.076172 L 17.035156 26.076172 L 17.027344 26.066406 L 14.751953 26.150391 C 14.548059 26.157991 14.395489 26.06975 14.296875 25.882812 C 14.198265 25.695879 14.193921 25.514614 14.28125 25.339844 L 15.154297 23.722656 C 15.647261 24.076177 15.261083 24.741437 15.859375 24.0625 C 16.489549 23.347384 15.775302 23.902945 15.367188 23.326172 L 16.673828 20.90625 C 17.319448 21.234057 16.845369 22.027342 17.480469 21.306641 C 18.149123 20.547854 17.305026 21.221457 16.917969 20.453125 L 18.121094 18.224609 C 18.79409 18.546492 18.304278 19.364159 18.945312 18.636719 C 19.620351 17.870696 18.75483 18.561508 18.373047 17.757812 L 19.431641 15.796875 C 20.379894 16.043467 19.752198 17.06193 20.445312 16.275391 C 21.15551 15.469465 20.159259 16.277787 19.816406 15.259766 C 19.802796 15.219336 19.793896 15.181696 19.785156 15.144531 L 20.517578 13.787109 C 20.570218 13.689859 20.659739 13.600491 20.787109 13.519531 C 20.914486 13.438571 21.044079 13.395435 21.173828 13.390625 z M 18.871094 22.673828 C 18.823084 22.674622 18.784593 22.696714 18.755859 22.740234 C 18.727139 22.783744 18.72439 22.826665 18.75 22.871094 L 19.261719 23.755859 L 17.574219 24.431641 C 17.525119 24.449211 17.494749 24.478971 17.480469 24.519531 C 17.466189 24.560091 17.470444 24.60205 17.496094 24.646484 C 17.512424 24.674764 17.537836 24.697857 17.570312 24.716797 C 17.602792 24.735737 17.632966 24.745634 17.660156 24.746094 L 20.890625 24.787109 C 20.938635 24.786315 20.976335 24.762327 21.003906 24.716797 C 21.031496 24.671267 21.031469 24.626467 21.005859 24.582031 L 20.501953 23.710938 L 22.183594 23.039062 C 22.232694 23.021496 22.265017 22.991732 22.279297 22.951172 C 22.293577 22.910612 22.287399 22.868652 22.261719 22.824219 C 22.245399 22.795939 22.21999 22.772846 22.1875 22.753906 C 22.15503 22.734956 22.126799 22.725069 22.099609 22.724609 L 18.871094 22.673828 z "
     inkscape:export-filename="raven2.svg"
     inkscape:export-xdpi="96"
     inkscape:export-ydpi="96" />
</svg>
