<svg xmlns="http://www.w3.org/2000/svg" height="40" viewBox="0 96 960 960" width="40"><path d="M480 991.827q-27.797 0-51.29-12.457-23.493-12.456-33-36.297h-9.334q-31.333-3.203-52.768-26.804-21.435-23.602-21.435-54.935V726.769q-64.232-44.116-101.116-111.718Q174.173 547.45 174.173 466q0-127.218 89.305-216.711Q352.782 159.796 480 159.796q127.218 0 216.711 89.493Q786.204 338.782 786.204 466q0 81.928-37.073 149.29-37.072 67.363-100.928 111.479v134.565q0 31.333-21.623 54.935-21.623 23.601-52.579 26.804h-9.334q-9.884 23.841-33.66 36.297-23.775 12.457-51.007 12.457Zm-79.681-130.493h159.362V820H400.319v41.334Zm0-81.334h159.362v-39.333H400.319V780Zm50.58-111.652h58.202V547.986l72.348-72.537q7.754-7.753 7.754-19.449 0-11.696-7.754-20.116-8.797-7.754-20.021-7.848-11.225-.094-19.21 7.515L480 497.58l-61.218-61.696q-8.42-7.754-20.115-7.754-11.696 0-19.45 7.754-8.42 8.797-8.514 20.022-.094 11.224 7.514 19.21l72.682 72.87v120.362Z"/></svg>