<?xml version="1.0" encoding="UTF-8" standalone="no"?>
<!-- Created with Inkscape (http://www.inkscape.org/) -->

<svg
   width="170.62532mm"
   height="60.05582mm"
   viewBox="0 0 170.62532 60.05582"
   version="1.1"
   id="svg1"
   xmlns="http://www.w3.org/2000/svg"
   xmlns:svg="http://www.w3.org/2000/svg">
  <defs
     id="defs1" />
  <g
     id="layer1"
     transform="translate(-12.896705,-40.374293)">
    <path
       id="rect1"
       style="fill:#000000;stroke-width:11.789"
       d="m 27.235779,40.37429 -10.835346,1.400717 c -2.07835,0.268619 -3.535219,2.158289 -3.2666,4.236638 L 13.91354,52.044 a 9.4496969,18.645846 51.027043 0 1 0.05105,-0.02969 c 0.462562,1.332812 2.273145,0.413566 3.797322,0.925811 1.603101,0.538769 2.501656,2.533375 3.769795,1.414434 1.268138,-1.118942 -0.598604,-2.25924 -0.933566,-3.916952 -0.110927,-0.548968 -0.04492,-1.110087 0.03466,-1.635727 a 9.4496969,18.645846 51.027043 0 1 3.749544,-0.893807 9.4496969,18.645846 51.027043 0 1 7.351851,3.015629 9.4496969,18.645846 51.027043 0 1 -0.767925,7.884379 9.4496969,18.645847 31.452716 0 1 -2.16739,17.214107 9.4496969,18.645847 31.452716 0 1 -15.860509,13.686433 c -0.08276,0.704387 -0.04434,1.407369 0.134162,2.074049 0.002,0.145626 0.0099,0.29251 0.02904,0.440572 l 0.254792,1.972609 a 18.645846,9.4496969 5.84086 0 1 5.974338,-1.397012 18.645846,9.4496969 5.84086 0 1 9.577041,0.293615 18.645846,9.4496969 5.84086 0 1 14.341979,7.33766 l 7.349163,-0.949835 c 2.07835,-0.26862 3.535222,-2.158278 3.2666,-4.236638 l -0.316678,-2.451966 c 0.01027,-0.125763 0.0012,-0.265505 -0.03043,-0.422014 -0.334962,-1.657711 -2.256147,-0.611357 -3.859248,-1.150126 -1.603101,-0.53877 -2.502196,-2.532883 -3.770335,-1.413941 -1.268138,1.118942 0.598603,2.25924 0.933566,3.91695 0.0067,0.03309 0.01163,0.06644 0.01707,0.09961 A 9.4496969,18.645846 51.027043 0 1 40.49185,90.781621 9.4496969,18.645846 51.027043 0 1 40.5392,84.862994 l -0.904056,0.116502 0.07634,-0.183183 A 9.4496969,18.645846 31.452716 0 1 38.513098,84.558634 9.4496969,18.645846 31.452716 0 1 38.007026,65.209559 9.4496969,18.645846 31.452716 0 1 53.308575,51.572492 c 0.472295,-0.725814 0.709868,-1.609856 0.589663,-2.539909 L 53.634295,46.990225 A 18.645846,9.4496969 5.840861 0 1 41.180953,47.181733 18.645846,9.4496969 5.840861 0 1 27.235779,40.37429 Z" />
    <path
       id="rect2"
       style="fill:#000000;stroke-width:10.436"
       d="m 66.097955,40.754709 c -0.157523,0.0079 -0.329654,0.05254 -0.520899,0.142627 -0.0828,0.03903 -0.15522,0.08144 -0.221175,0.125574 -0.01767,-0.009 -0.03365,-0.01867 -0.05219,-0.02739 -1.529991,-0.720651 -1.836549,1.445511 -3.225643,2.410189 -1.389101,0.964684 -3.526212,0.495411 -3.385323,2.180746 0.07558,0.904021 0.696111,1.087168 1.489832,1.174605 -0.01587,0.03278 -0.03634,0.06275 -0.05116,0.09612 a 4.9097543,26.249546 0 0 1 2.902148,20.561019 c -0.04486,0.172967 -0.07162,0.353405 -0.06976,0.541052 l 0.01034,1.043864 c -0.01611,0.107638 -0.02541,0.217224 -0.02429,0.329696 l 0.0155,1.543058 c -0.0063,0.06933 -0.01415,0.138123 -0.01344,0.20929 l 0.01033,1.043864 c -0.01611,0.107635 -0.02541,0.217224 -0.02429,0.329695 l 0.01705,1.711007 c 0.0018,0.177056 0.02697,0.347847 0.07028,0.51108 a 4.9097543,26.249546 0 0 1 -2.831868,20.132621 c -1.024096,0.267809 -1.929231,0.44305 -1.836064,1.557528 0.140897,1.685329 2.170051,0.867878 3.700033,1.588533 1.436493,0.676611 2.108301,2.556143 3.33468,1.984892 0.897949,-0.120897 1.563872,-1.5189 2.760555,-2.08256 1.529979,-0.720655 3.559141,0.09629 3.700032,-1.589051 0.08087,-0.96738 -0.589836,-1.224808 -1.437638,-1.451074 a 4.9097543,26.249546 0 0 1 -2.689242,-20.190499 3.0222261,16.158051 89.431429 0 1 0.04393,-0.0088 11.305102,2.744916 0 0 1 11.274248,-2.629813 11.305102,2.744916 0 0 1 11.262361,2.508891 3.0222261,16.158051 89.431429 0 1 0.02946,0.0062 4.9097543,26.249546 0 0 1 -2.902149,20.300569 c -1.031906,0.270695 -1.948927,0.441322 -1.855183,1.562696 0.140896,1.685329 2.170051,0.867878 3.700032,1.588533 1.436494,0.676611 2.108301,2.556139 3.33468,1.984892 0.897949,-0.120897 1.563872,-1.5189 2.760555,-2.08256 1.52998,-0.720655 3.559142,0.09629 3.700033,-1.589051 0.07466,-0.893166 -0.49204,-1.180312 -1.246436,-1.39733 A 4.9097543,26.249546 0 0 1 95.030556,74.157838 c 0.01386,-0.100142 0.02274,-0.202132 0.0217,-0.306441 l -0.01033,-1.052649 c 0.01533,-0.10495 0.02538,-0.211852 0.02429,-0.321427 l -0.01499,-1.51567 c 0.0081,-0.07776 0.01371,-0.156069 0.01292,-0.236161 l -0.01033,-1.052649 c 0.01532,-0.10494 0.02538,-0.211853 0.02429,-0.321428 l -0.01705,-1.71049 c -4.33e-4,-0.04343 -0.0078,-0.08492 -0.01085,-0.12764 a 4.9097543,26.249546 0 0 1 3.202905,-20.958411 c 0.486207,-0.136017 0.828828,-0.410612 0.883667,-1.066602 0.140882,-1.685329 -1.995706,-1.216065 -3.384806,-2.180745 -1.215457,-0.844097 -1.602574,-2.607832 -2.705261,-2.552816 -0.157524,0.0079 -0.329654,0.05255 -0.520899,0.142627 -0.08284,0.03902 -0.155221,0.08144 -0.221175,0.125574 -0.01766,-0.009 -0.03367,-0.01866 -0.05219,-0.02739 -1.529991,-0.720651 -1.83655,1.445511 -3.225643,2.410189 -1.389103,0.964684 -3.526212,0.49541 -3.385323,2.180746 0.08672,1.037307 0.889823,1.125979 1.850533,1.209228 a 4.9097543,26.249546 0 0 1 2.837553,19.959505 3.0222261,16.158051 89.431429 0 1 -0.02377,0.0052 11.305102,2.744916 0 0 1 0.02997,0.185002 4.9097543,26.249546 0 0 1 5.17e-4,0.0186 11.305102,2.744916 0 0 1 -11.303703,2.739368 11.305102,2.744916 0 0 1 -11.270113,-2.633948 4.9097543,26.249546 0 0 1 3.240629,-20.448881 c 0.642611,-0.107666 1.119389,-0.348099 1.18494,-1.132231 0.140883,-1.685329 -1.995706,-1.216066 -3.384806,-2.180745 -1.215457,-0.844098 -1.602574,-2.607832 -2.705261,-2.552816 z" />
    <g
       id="g2"
       transform="translate(0,-1.572176)">
      <path
         id="path4"
         style="fill:#000000;stroke-width:12.3243"
         d="m 150.44809,46.107724 a 2.86159,0.99633219 0 0 0 -2.86192,0.995975 2.86159,0.99633219 0 0 0 0.0126,0.07012 h -0.0163 a 17.074892,33.120874 0 0 0 -2.69129,17.732044 17.074892,33.120874 0 0 0 17.07498,33.120931 17.074892,33.120874 0 0 0 2.02406,-0.237109 17.074892,33.120874 0 0 0 0.39085,0.04576 17.074892,33.120874 0 0 0 17.07498,-33.120337 17.074892,33.120874 0 0 0 -2.65749,-17.732638 h -0.0256 a 2.86159,0.99633219 0 0 0 -2.81721,-0.821858 2.86159,0.99633219 0 0 0 -2.86191,0.995975 2.86159,0.99633219 0 0 0 0.003,0.01724 h -0.0354 a 12.372892,30.328262 0 0 1 1.27778,13.387429 12.372892,30.328262 0 0 1 -10.66376,30.032576 12.372892,30.328262 0 0 1 -11.66787,-30.223926 12.372892,30.328262 0 0 1 1.23962,-13.067125 2.86159,0.99633219 0 0 0 0.0621,-0.199076 2.86159,0.99633219 0 0 0 -0.0115,-0.08855 12.372892,30.328262 0 0 1 0.005,-0.03268 h -0.0153 a 2.86159,0.99633219 0 0 0 -2.8401,-0.874747 z" />
      <path
         id="path4-1"
         style="fill:#000000;stroke-width:12.3243"
         d="m 152.51407,45.921955 a 2.86159,0.99633219 0 0 0 -2.86192,0.995976 2.86159,0.99633219 0 0 0 0.0126,0.07012 h -0.0163 a 17.074892,33.120874 0 0 0 -2.69129,17.732044 17.074892,33.120874 0 0 0 17.07498,33.120931 17.074892,33.120874 0 0 0 2.02405,-0.237109 17.074892,33.120874 0 0 0 0.39086,0.04576 17.074892,33.120874 0 0 0 17.07498,-33.120337 17.074892,33.120874 0 0 0 -2.65749,-17.732638 h -0.0256 a 2.86159,0.99633219 0 0 0 -2.81721,-0.821858 2.86159,0.99633219 0 0 0 -2.86191,0.995976 2.86159,0.99633219 0 0 0 0.003,0.01724 h -0.0354 a 12.372892,30.328262 0 0 1 1.27778,13.387429 12.372892,30.328262 0 0 1 -10.66376,30.032575 12.372892,30.328262 0 0 1 -11.66787,-30.223926 12.372892,30.328262 0 0 1 1.23962,-13.067124 2.86159,0.99633219 0 0 0 0.0621,-0.199077 2.86159,0.99633219 0 0 0 -0.0115,-0.08855 12.372892,30.328262 0 0 1 0.005,-0.03268 h -0.0153 a 2.86159,0.99633219 0 0 0 -2.84011,-0.874747 z" />
    </g>
    <g
       id="g1">
      <path
         id="path2-7"
         style="fill:#000000;stroke-width:12.2123"
         d="m 120.62618,42.79426 a 25.292146,26.538451 0 0 0 -19.07514,25.670929 25.292146,26.538451 0 0 0 0.17507,2.710143 25.292146,26.538451 0 0 0 -0.0768,1.184033 25.292146,26.538451 0 0 0 18.98732,25.650772 25.292146,26.538451 0 0 0 18.98678,-25.650772 25.292146,26.538451 0 0 0 -0.17289,-2.744122 25.292146,26.538451 0 0 0 0.0747,-1.150054 25.292146,26.538451 0 0 0 -18.89897,-25.670929 z m 0.0735,11.020255 a 18.268511,19.168718 0 0 1 13.44727,15.957371 18.268511,19.168718 0 0 1 -13.60863,17.217995 18.268511,19.168718 0 0 1 -13.5148,-16.042025 18.268511,19.168718 0 0 1 13.67616,-17.133341 z" />
      <path
         id="path3"
         style="fill:#000000;stroke-width:15.9187"
         d="m 120.58715,60.063628 a 6.9793785,10.338303 0 0 0 -6.97912,10.338399 6.9793785,10.338303 0 0 0 6.97912,10.3384 6.9793785,10.338303 0 0 0 6.97967,-10.3384 6.9793785,10.338303 0 0 0 -6.97967,-10.338399 z m 2.09769,4.327823 a 3.131678,4.6388423 0 0 1 3.13171,4.638803 3.131678,4.6388423 0 0 1 -3.13171,4.638804 3.131678,4.6388423 0 0 1 -3.13171,-4.638804 3.131678,4.6388423 0 0 1 3.13171,-4.638803 z" />
      <path
         style="fill:none;fill-rule:evenodd;stroke:#000000;stroke-width:0.264583"
         id="path5"
         d="m 154.7007,47.997406 c -0.0191,0.182852 -0.2559,0.06449 -0.30391,-0.03172 -0.13013,-0.260715 0.12406,-0.525732 0.36734,-0.576108 0.43519,-0.09011 0.80499,0.29246 0.84831,0.702977 0.0636,0.602451 -0.46203,1.089423 -1.03861,1.120498 -0.7685,0.04142 -1.37587,-0.631849 -1.39269,-1.374237 -0.0212,-0.93422 0.80176,-1.663326 1.70986,-1.664889 1.09983,-0.0019 1.95136,0.971731 1.93709,2.045498 -0.0168,1.265398 -1.14172,2.239746 -2.38113,2.209279 -1.43095,-0.03518 -2.52838,-1.311724 -2.48147,-2.716758 0.0533,-1.596489 1.48174,-2.817175 3.05238,-2.753669 1.76203,0.07124 3.1061,1.651771 3.02587,3.388018 -0.0891,1.927564 -1.82181,3.39511 -3.72365,3.298059 -2.0931,-0.10681 -3.68419,-1.991847 -3.57026,-4.059278 0.12448,-2.258638 2.1619,-3.973333 4.39491,-3.84245 2.42418,0.142088 4.26252,2.331944 4.11465,4.730539 -0.15966,2.589716 -2.502,4.551737 -5.06617,4.38684 -2.75526,-0.177185 -4.84099,-2.672052 -4.65904,-5.401799 0.19469,-2.920797 2.84211,-5.130261 5.73743,-4.93123 3.08634,0.212162 5.41956,3.01217 5.20343,6.073059 -0.22962,3.25188 -3.18223,5.708869 -6.40869,5.47562"
         transform="matrix(1.062082,0,0,1.1144175,-43.296559,15.343931)" />
    </g>
  </g>
</svg>
