<svg xmlns="http://www.w3.org/2000/svg" height="40" viewBox="0 96 960 960" width="40"><path d="M70.384 612.282q-15.609 0-26.065-10.416Q33.862 591.449 33.862 576t10.457-25.866q10.456-10.416 26.065-10.416h168q15.449 0 25.866 10.416 10.417 10.417 10.417 25.866t-10.417 25.866q-10.417 10.416-25.866 10.416h-168ZM283.109 430l-35.667-35.667q-9.877-10.036-9.877-24.446 0-14.409 10.877-25.445 10.703-10.544 25.525-10.544 14.823 0 25.366 10.544L335 380.109q10.036 10.036 9.956 24.525Q344.877 419.123 334 430q-10.544 10.543-25.366 10.543T283.109 430ZM480 370.667q-14.942 0-25.612-10.25-10.67-10.25-10.67-25.033v-170q0-14.942 10.67-25.232T480 129.862q14.942 0 25.612 10.29 10.67 10.29 10.67 25.232v170q0 14.783-10.67 25.033-10.67 10.25-25.612 10.25ZM626 430q-10.543-10.544-10.543-25.366T626 379.109l35.667-35.667q10.036-9.877 24.446-9.877 14.409 0 25.445 10.877 10.544 10.703 10.544 25.525 0 14.823-10.544 25.366L675.891 431q-10.036 10.036-24.525 9.956Q636.877 440.877 626 430Zm95.616 182.282q-15.449 0-25.866-10.416-10.417-10.417-10.417-25.866t10.417-25.866q10.417-10.416 25.866-10.416h168q15.609 0 26.065 10.416 10.457 10.417 10.457 25.866t-10.457 25.866q-10.456 10.416-26.065 10.416h-168ZM480 686.949q-46.609 0-78.779-32.17-32.17-32.17-32.17-78.779 0-46.609 32.17-78.779 32.17-32.17 78.779-32.17 46.609 0 78.779 32.17 32.17 32.17 32.17 78.779 0 46.609-32.17 78.779-32.17 32.17-78.779 32.17Zm184 123.942-39-39q-10.036-10.036-9.956-24.525Q615.123 732.877 626 722q10.544-10.543 25.366-10.543T676.891 722l39.001 39q9.876 10.037 9.876 24.446t-10.876 25.445q-10.703 10.544-25.526 10.544-14.822 0-25.366-10.544Zm-418.892 0q-10.543-10.702-10.543-25.525 0-14.822 10.543-25.366l39.001-39q10.036-10.036 24.525-9.956Q323.123 711.123 334 722q10.543 10.544 10.543 25.366T334 772.891l-39 39q-10.037 9.877-24.446 9.877t-25.446-10.877ZM480 1022.14q-15.449 0-25.866-10.46-10.416-10.46-10.416-26.064v-168q0-15.449 10.416-25.866 10.417-10.417 25.866-10.417t25.866 10.417q10.416 10.417 10.416 25.866v168q0 15.604-10.416 26.064-10.417 10.46-25.866 10.46Z"/></svg>