<?xml version="1.0" encoding="UTF-8" standalone="no"?>
<!-- Created with Inkscape (http://www.inkscape.org/) -->

<svg
   width="69.488747mm"
   height="75.962387mm"
   viewBox="0 0 69.488747 75.962387"
   version="1.1"
   id="svg1"
   xmlns="http://www.w3.org/2000/svg"
   xmlns:svg="http://www.w3.org/2000/svg">
  <defs
     id="defs1" />
  <g
     id="layer1"
     transform="translate(-13.876708,-169.81425)">
    <path
       id="path7"
       style="fill:#000000;stroke-width:0.264583"
       d="m 146.50231,169.1491 c -8.79472,0.15056 -17.60468,5.45073 -26.01909,10.66188 -11.70698,7.25032 -23.908773,15.10895 -23.483317,28.87266 0.425458,13.76371 13.089787,20.85393 25.222237,27.36732 12.13243,6.5134 25.03909,13.15125 36.74607,5.90093 3.42731,-2.12257 5.82923,-4.87084 7.50962,-8.03723 -0.66821,0.57486 -1.39363,1.11508 -2.19314,1.61024 -9.4873,5.87561 -19.94699,0.49628 -29.77907,-4.78214 -9.83207,-5.27843 -20.0948,-11.02393 -20.43957,-22.17798 -0.34479,-11.15403 9.54307,-17.52295 19.03036,-23.39857 9.48729,-5.87561 19.59507,-11.89042 29.42714,-6.612 1.1378,0.61084 2.1467,1.31147 3.05046,2.08463 -1.9197,-3.67537 -4.68958,-6.79172 -8.77879,-8.98705 -3.41225,-1.83189 -6.85151,-2.5616 -10.29291,-2.50269 z m -35.72805,33.6951 c 0.0231,0.002 0.0432,0.008 0.061,0.0181 0.56789,0.31828 -0.89404,5.20038 -0.88573,5.85132 0.008,0.65095 1.59466,5.49437 1.03508,5.82704 -0.55958,0.33267 -4.05663,-3.37452 -4.62452,-3.6928 -0.56789,-0.31828 -5.5557,-1.3665 -5.56401,-2.01745 -0.008,-0.65094 4.9512,-1.82585 5.51078,-2.15852 0.54209,-0.32228 3.7511,-3.8941 4.46743,-3.82768 z"
       transform="translate(-83.112379,0.66843888)" />
    <ellipse
       style="fill:#000000;stroke-width:0.453981"
       id="path8"
       cx="68.987747"
       cy="207.34706"
       rx="11.626585"
       ry="17.665472" />
    <path
       style="fill:#000000;stroke-width:0.264583"
       id="path1-2"
       d="M 29.543514,9.1274627 C 46.677846,-0.95651426 36.815604,19.132281 54.115751,28.929058 71.415897,38.725835 83.57045,19.935136 83.736264,39.815891 83.902078,59.696646 71.435792,41.111297 54.301461,51.195274 37.16713,61.279252 47.363076,81.200753 30.062931,71.403975 12.762785,61.607197 35.091312,60.103751 34.925497,40.222996 34.759682,20.342242 12.409183,19.211439 29.543514,9.1274627 Z"
       transform="matrix(0.05072984,0.14210029,-0.14210029,0.05072984,68.899636,167.71621)" />
    <path
       style="fill:#000000;stroke-width:0.264583"
       id="path1-2-7"
       d="M 29.543514,9.1274627 C 46.677846,-0.95651426 36.815604,19.132281 54.115751,28.929058 71.415897,38.725835 83.57045,19.935136 83.736264,39.815891 83.902078,59.696646 71.435792,41.111297 54.301461,51.195274 37.16713,61.279252 47.363076,81.200753 30.062931,71.403975 12.762785,61.607197 35.091312,60.103751 34.925497,40.222996 34.759682,20.342242 12.409183,19.211439 29.543514,9.1274627 Z"
       transform="matrix(0.05072984,0.14210029,-0.14210029,0.05072984,59.28589,171.82454)" />
    <path
       style="fill:#000000;stroke-width:0.264583"
       id="path1-2-6"
       d="M 29.543514,9.1274627 C 46.677846,-0.95651426 36.815604,19.132281 54.115751,28.929058 71.415897,38.725835 83.57045,19.935136 83.736264,39.815891 83.902078,59.696646 71.435792,41.111297 54.301461,51.195274 37.16713,61.279252 47.363076,81.200753 30.062931,71.403975 12.762785,61.607197 35.091312,60.103751 34.925497,40.222996 34.759682,20.342242 12.409183,19.211439 29.543514,9.1274627 Z"
       transform="matrix(0.05072984,0.14210029,-0.14210029,0.05072984,49.576649,177.06789)" />
    <path
       style="fill:#000000;stroke-width:0.264583"
       id="path1-2-61"
       d="M 29.543514,9.1274627 C 46.677846,-0.95651426 36.815604,19.132281 54.115751,28.929058 71.415897,38.725835 83.57045,19.935136 83.736264,39.815891 83.902078,59.696646 71.435792,41.111297 54.301461,51.195274 37.16713,61.279252 47.363076,81.200753 30.062931,71.403975 12.762785,61.607197 35.091312,60.103751 34.925497,40.222996 34.759682,20.342242 12.409183,19.211439 29.543514,9.1274627 Z"
       transform="matrix(0.05072984,0.14210029,-0.14210029,0.05072984,39.904571,184.66769)" />
    <path
       style="fill:#000000;stroke-width:0.264583"
       id="path1-2-2"
       d="M 29.543514,9.1274627 C 46.677846,-0.95651426 36.815604,19.132281 54.115751,28.929058 71.415897,38.725835 83.57045,19.935136 83.736264,39.815891 83.902078,59.696646 71.435792,41.111297 54.301461,51.195274 37.16713,61.279252 47.363076,81.200753 30.062931,71.403975 12.762785,61.607197 35.091312,60.103751 34.925497,40.222996 34.759682,20.342242 12.409183,19.211439 29.543514,9.1274627 Z"
       transform="matrix(0.05072984,0.14210029,-0.14210029,0.05072984,39.624805,214.09457)" />
    <path
       style="fill:#000000;stroke-width:0.264583"
       id="path1-2-75"
       d="M 29.543514,9.1274627 C 46.677846,-0.95651426 36.815604,19.132281 54.115751,28.929058 71.415897,38.725835 83.57045,19.935136 83.736264,39.815891 83.902078,59.696646 71.435792,41.111297 54.301461,51.195274 37.16713,61.279252 47.363076,81.200753 30.062931,71.403975 12.762785,61.607197 35.091312,60.103751 34.925497,40.222996 34.759682,20.342242 12.409183,19.211439 29.543514,9.1274627 Z"
       transform="matrix(0.05072984,0.14210029,-0.14210029,0.05072984,49.210953,219.89394)" />
    <path
       style="fill:#000000;stroke-width:0.264583"
       id="path1-2-8"
       d="M 29.543514,9.1274627 C 46.677846,-0.95651426 36.815604,19.132281 54.115751,28.929058 71.415897,38.725835 83.57045,19.935136 83.736264,39.815891 83.902078,59.696646 71.435792,41.111297 54.301461,51.195274 37.16713,61.279252 47.363076,81.200753 30.062931,71.403975 12.762785,61.607197 35.091312,60.103751 34.925497,40.222996 34.759682,20.342242 12.409183,19.211439 29.543514,9.1274627 Z"
       transform="matrix(0.05072984,0.14210029,-0.14210029,0.05072984,60.117778,226.31689)" />
    <path
       style="fill:#000000;stroke-width:0.264583"
       id="path1-2-612"
       d="M 29.543514,9.1274627 C 46.677846,-0.95651426 36.815604,19.132281 54.115751,28.929058 71.415897,38.725835 83.57045,19.935136 83.736264,39.815891 83.902078,59.696646 71.435792,41.111297 54.301461,51.195274 37.16713,61.279252 47.363076,81.200753 30.062931,71.403975 12.762785,61.607197 35.091312,60.103751 34.925497,40.222996 34.759682,20.342242 12.409183,19.211439 29.543514,9.1274627 Z"
       transform="matrix(0.05072984,0.14210029,-0.14210029,0.05072984,70.873667,230.90526)" />
  </g>
</svg>
