<?xml version="1.0" encoding="UTF-8" standalone="no"?>
<!-- Created with Inkscape (http://www.inkscape.org/) -->

<svg
   width="210mm"
   height="297mm"
   viewBox="0 0 210 297"
   version="1.1"
   id="svg1"
   inkscape:version="1.3.2 (091e20ef0f, 2023-11-25, custom)"
   sodipodi:docname="titlebar.svg"
   xmlns:inkscape="http://www.inkscape.org/namespaces/inkscape"
   xmlns:sodipodi="http://sodipodi.sourceforge.net/DTD/sodipodi-0.dtd"
   xmlns="http://www.w3.org/2000/svg"
   xmlns:svg="http://www.w3.org/2000/svg">
  <sodipodi:namedview
     id="namedview1"
     pagecolor="#ffffff"
     bordercolor="#000000"
     borderopacity="0.25"
     inkscape:showpageshadow="2"
     inkscape:pageopacity="0.0"
     inkscape:pagecheckerboard="0"
     inkscape:deskcolor="#d1d1d1"
     inkscape:document-units="mm"
     inkscape:zoom="0.55748644"
     inkscape:cx="-170.40773"
     inkscape:cy="634.09614"
     inkscape:window-width="1920"
     inkscape:window-height="1058"
     inkscape:window-x="0"
     inkscape:window-y="22"
     inkscape:window-maximized="1"
     inkscape:current-layer="layer1" />
  <defs
     id="defs1" />
  <g
     inkscape:label="Layer 1"
     inkscape:groupmode="layer"
     id="layer1">
    <circle
       style="fill:#ff0000;stroke-width:11.1051"
       id="path1"
       cx="46.056522"
       cy="44.86866"
       r="41.902256" />
    <circle
       style="fill:#ffff00;stroke-width:11.1051"
       id="path1-6"
       cx="141.8156"
       cy="43.642838"
       r="41.902256" />
    <circle
       style="fill:#00ff00;stroke-width:11.1051"
       id="path1-6-3"
       cx="50.918419"
       cy="138.36694"
       r="41.902256" />
    <circle
       style="fill:#800080;stroke-width:11.1051"
       id="path1-6-3-06"
       cx="48.781422"
       cy="237.79465"
       r="41.902256" />
    <circle
       style="fill:#00ffff;stroke-width:11.1051"
       id="path1-6-3-0"
       cx="150.03403"
       cy="143.05681"
       r="41.902256" />
    <path
       sodipodi:type="star"
       style="fill:#800000;stroke-width:10.436"
       id="path3"
       inkscape:flatsided="false"
       sodipodi:sides="3"
       sodipodi:cx="74.00058"
       sodipodi:cy="112.56176"
       sodipodi:r1="25.184093"
       sodipodi:r2="11.836524"
       sodipodi:arg1="1.5707963"
       sodipodi:arg2="2.6179939"
       inkscape:rounded="0.42"
       inkscape:randomized="0"
       d="m 74.000581,137.74585 c -9.165722,0 -5.667871,-11.32808 -10.250732,-19.26583 -4.582861,-7.93775 -16.142195,-10.57256 -11.559334,-18.510306 4.582861,-7.937748 12.644343,0.755526 21.810065,0.755526 9.165722,0 17.227204,-8.693275 21.810064,-0.755527 4.582856,7.937747 -6.976473,10.572557 -11.559334,18.510307 -4.58286,7.93775 -1.085008,19.26583 -10.250729,19.26583 z"
       inkscape:transform-center-y="4.9622346"
       transform="matrix(1.0729259,0,0,1.0729259,-33.340615,-77.040733)"
       inkscape:transform-center-x="1.2928163e-06" />
    <g
       id="g5"
       transform="translate(-14.449175,-150.16116)"
       style="fill:#ffffff">
      <path
         sodipodi:type="star"
         style="fill:#ffffff;stroke-width:10.436"
         id="path5-2"
         inkscape:flatsided="false"
         sodipodi:sides="3"
         sodipodi:cx="20.025785"
         sodipodi:cy="237.67856"
         sodipodi:r1="17.127361"
         sodipodi:r2="10.276417"
         sodipodi:arg1="-2.0943951"
         sodipodi:arg2="-1.0471976"
         inkscape:rounded="0.2"
         inkscape:randomized="0"
         d="m 11.462105,222.84583 c 2.586175,-1.49313 11.115714,4.43996 13.701888,5.93309 2.586175,1.49313 11.989154,5.91338 11.989154,8.89964 0,2.98626 -9.402978,7.40651 -11.989153,8.89964 -2.586175,1.49312 -11.115714,7.42622 -13.701889,5.93309 -2.5861751,-1.49313 -1.7127363,-11.84647 -1.7127363,-14.83273 0,-2.98626 -0.8734387,-13.3396 1.7127363,-14.83273 z"
         inkscape:transform-center-x="5.2939722"
         transform="matrix(-1.578175,0,0,0.55399745,201.90701,62.130686)" />
      <path
         sodipodi:type="star"
         style="fill:#ffffff;stroke-width:10.436"
         id="path5-2-7"
         inkscape:flatsided="false"
         sodipodi:sides="3"
         sodipodi:cx="20.025785"
         sodipodi:cy="237.67856"
         sodipodi:r1="17.127361"
         sodipodi:r2="10.276417"
         sodipodi:arg1="-2.0943951"
         sodipodi:arg2="-1.0471976"
         inkscape:rounded="0.2"
         inkscape:randomized="0"
         d="m 11.462105,222.84583 c 2.586175,-1.49313 11.115714,4.43996 13.701888,5.93309 2.586175,1.49313 11.989154,5.91338 11.989154,8.89964 0,2.98626 -9.402978,7.40651 -11.989153,8.89964 -2.586175,1.49312 -11.115714,7.42622 -13.701889,5.93309 -2.5861751,-1.49313 -1.7127363,-11.84647 -1.7127363,-14.83273 0,-2.98626 -0.8734387,-13.3396 1.7127363,-14.83273 z"
         inkscape:transform-center-x="-5.2939767"
         transform="matrix(1.578175,0,0,0.55399745,110.62255,62.130686)" />
    </g>
    <path
       sodipodi:type="star"
       style="fill:#ff00ff;stroke-width:10.436"
       id="path6"
       inkscape:flatsided="false"
       sodipodi:sides="3"
       sodipodi:cx="8.6892958"
       sodipodi:cy="157.53076"
       sodipodi:r1="34.013672"
       sodipodi:r2="22.789162"
       sodipodi:arg1="2.0943951"
       sodipodi:arg2="3.1415927"
       inkscape:rounded="0.2"
       inkscape:randomized="0"
       d="m -8.3175401,186.98747 c -5.1994209,-3.00189 -5.7823259,-23.45293 -5.7823259,-29.45671 0,-6.00377 0.582905,-26.45482 5.7823258,-29.4567 5.1994215,-3.00189 23.2019962,6.71882 28.4014182,9.72071 5.199421,3.00189 22.61909,13.73222 22.61909,19.73599 -10e-7,6.00378 -17.419671,16.73411 -22.619092,19.736 -5.199421,3.00188 -23.2019952,12.72259 -28.4014161,9.72071 z"
       inkscape:transform-center-x="3.5984878"
       inkscape:transform-center-y="3.5984866"
       transform="matrix(0.34195185,-0.34195185,0.34195185,0.34195185,1.4871579,77.939575)" />
    <path
       sodipodi:type="star"
       style="fill:#00ff00;stroke-width:10.436"
       id="path6-2"
       inkscape:flatsided="false"
       sodipodi:sides="3"
       sodipodi:cx="8.6892958"
       sodipodi:cy="157.53076"
       sodipodi:r1="34.013672"
       sodipodi:r2="22.789162"
       sodipodi:arg1="2.0943951"
       sodipodi:arg2="3.1415927"
       inkscape:rounded="0.2"
       inkscape:randomized="0"
       d="m -8.3175401,186.98747 c -5.1994209,-3.00189 -5.7823259,-23.45293 -5.7823259,-29.45671 0,-6.00377 0.582905,-26.45482 5.7823258,-29.4567 5.1994215,-3.00189 23.2019962,6.71882 28.4014182,9.72071 5.199421,3.00189 22.61909,13.73222 22.61909,19.73599 -10e-7,6.00378 -17.419671,16.73411 -22.619092,19.736 -5.199421,3.00188 -23.2019952,12.72259 -28.4014161,9.72071 z"
       inkscape:transform-center-x="2.5127069"
       inkscape:transform-center-y="2.5127071"
       transform="matrix(0.23877391,-0.23877391,0.23877391,0.23877391,16.331174,95.880382)" />
    <path
       sodipodi:type="star"
       style="fill:#ff00ff;stroke-width:10.436"
       id="path6-4"
       inkscape:flatsided="false"
       sodipodi:sides="3"
       sodipodi:cx="8.6892958"
       sodipodi:cy="157.53076"
       sodipodi:r1="34.013672"
       sodipodi:r2="22.789162"
       sodipodi:arg1="2.0943951"
       sodipodi:arg2="3.1415927"
       inkscape:rounded="0.2"
       inkscape:randomized="0"
       d="m -8.3175401,186.98747 c -5.1994209,-3.00189 -5.7823259,-23.45293 -5.7823259,-29.45671 0,-6.00377 0.582905,-26.45482 5.7823258,-29.4567 5.1994215,-3.00189 23.2019962,6.71882 28.4014182,9.72071 5.199421,3.00189 22.61909,13.73222 22.61909,19.73599 -10e-7,6.00378 -17.419671,16.73411 -22.619092,19.736 -5.199421,3.00188 -23.2019952,12.72259 -28.4014161,9.72071 z"
       inkscape:transform-center-x="3.5984878"
       inkscape:transform-center-y="3.5984866"
       transform="matrix(-0.34195185,0.34195185,-0.34195185,-0.34195185,99.62671,195.56044)" />
    <path
       sodipodi:type="star"
       style="fill:#00ff00;stroke-width:10.436"
       id="path6-2-7"
       inkscape:flatsided="false"
       sodipodi:sides="3"
       sodipodi:cx="8.6892958"
       sodipodi:cy="157.53076"
       sodipodi:r1="34.013672"
       sodipodi:r2="22.789162"
       sodipodi:arg1="2.0943951"
       sodipodi:arg2="3.1415927"
       inkscape:rounded="0.2"
       inkscape:randomized="0"
       d="m -8.3175401,186.98747 c -5.1994209,-3.00189 -5.7823259,-23.45293 -5.7823259,-29.45671 0,-6.00377 0.582905,-26.45482 5.7823258,-29.4567 5.1994215,-3.00189 23.2019962,6.71882 28.4014182,9.72071 5.199421,3.00189 22.61909,13.73222 22.61909,19.73599 -10e-7,6.00378 -17.419671,16.73411 -22.619092,19.736 -5.199421,3.00188 -23.2019952,12.72259 -28.4014161,9.72071 z"
       inkscape:transform-center-x="2.5127069"
       inkscape:transform-center-y="2.5127071"
       transform="matrix(-0.23877391,0.23877391,-0.23877391,-0.23877391,84.782694,177.61964)" />
    <path
       sodipodi:type="star"
       style="fill:#0000ff;stroke-width:10.436"
       id="path7"
       inkscape:flatsided="false"
       sodipodi:sides="3"
       sodipodi:cx="32.201256"
       sodipodi:cy="222.04179"
       sodipodi:r1="23.067987"
       sodipodi:r2="19.607788"
       sodipodi:arg1="2.0943951"
       sodipodi:arg2="3.1415927"
       inkscape:rounded="0.4"
       inkscape:randomized="0"
       d="m 20.667262,242.01926 c -7.464196,-4.30946 -8.073794,-11.35856 -8.073794,-19.97747 0,-8.61891 0.609598,-15.668 8.073794,-19.97746 7.464197,-4.30945 13.873692,-1.31283 21.337889,2.99662 7.464195,4.30946 13.264093,8.36193 13.264092,16.98084 0,8.61892 -5.799898,12.67139 -13.264094,16.98085 -7.464196,4.30945 -13.873691,7.30607 -21.337887,2.99662 z"
       inkscape:transform-center-x="8.1029796e-06"
       inkscape:transform-center-y="-5.0861991"
       transform="matrix(0,-1.1257627,1.1257627,0,-99.932342,180.21618)" />
    <path
       sodipodi:type="star"
       style="fill:#00ffff;stroke-width:10.436"
       id="path7-0"
       inkscape:flatsided="false"
       sodipodi:sides="3"
       sodipodi:cx="32.201256"
       sodipodi:cy="222.04179"
       sodipodi:r1="23.067987"
       sodipodi:r2="19.607788"
       sodipodi:arg1="2.0943951"
       sodipodi:arg2="3.1415927"
       inkscape:rounded="0.4"
       inkscape:randomized="0"
       d="m 20.667262,242.01926 c -7.464196,-4.30946 -8.073794,-11.35856 -8.073794,-19.97747 0,-8.61891 0.609598,-15.668 8.073794,-19.97746 7.464197,-4.30945 13.873692,-1.31283 21.337889,2.99662 7.464195,4.30946 13.264093,8.36193 13.264092,16.98084 0,8.61892 -5.799898,12.67139 -13.264094,16.98085 -7.464196,4.30945 -13.873691,7.30607 -21.337887,2.99662 z"
       inkscape:transform-center-y="-3.5996291"
       transform="matrix(0,-0.79673018,0.79673018,0,-26.873371,176.94747)" />
    <path
       sodipodi:type="star"
       style="fill:#00ffff;stroke-width:10.436"
       id="path8"
       inkscape:flatsided="false"
       sodipodi:sides="5"
       sodipodi:cx="111.38676"
       sodipodi:cy="237.88577"
       sodipodi:r1="27.546038"
       sodipodi:r2="15.150321"
       sodipodi:arg1="1.0471976"
       sodipodi:arg2="1.6755161"
       inkscape:rounded="0.25"
       inkscape:randomized="0"
       d="m 125.15977,261.74134 c -3.83075,2.21169 -10.95751,-8.32587 -15.35665,-8.78824 -4.39915,-0.46237 -13.561052,8.36318 -16.848261,5.40337 -3.287209,-2.95982 4.532319,-12.99405 3.612648,-17.32077 -0.919672,-4.32671 -12.144457,-10.31296 -10.345307,-14.35391 1.799149,-4.04096 13.75864,0.29511 17.5894,-1.91658 3.83075,-2.21169 6.05536,-14.73694 10.4545,-14.27457 4.39915,0.46236 3.97099,13.17643 7.2582,16.13625 3.28721,2.95982 15.88688,1.20503 16.80655,5.53174 0.91967,4.32672 -11.30444,7.84838 -13.10359,11.88933 -1.79915,4.04096 3.76327,15.48169 -0.0675,17.69338 z"
       inkscape:transform-center-x="0.12155894"
       inkscape:transform-center-y="-2.3069556"
       transform="rotate(-6.9603554,82.010322,751.63804)" />
  </g>
</svg>
