<?xml version="1.0" encoding="UTF-8" standalone="no"?>
<!-- Created with Inkscape (http://www.inkscape.org/) -->

<svg
   width="24.919069mm"
   height="64.625mm"
   viewBox="0 0 24.919069 64.625"
   version="1.1"
   id="svg1"
   xmlns="http://www.w3.org/2000/svg"
   xmlns:svg="http://www.w3.org/2000/svg">
  <defs
     id="defs1" />
  <g
     id="layer1"
     transform="translate(-104.17029,-42.221713)">
    <g
       id="g3">
      <path
         id="path1"
         style="fill:#000000;stroke-width:10.436"
         d="m 115.93691,40.403871 c -4.15749,0 -6.73261,4.878067 -8.81135,8.478552 -2.07874,3.600486 -5.01603,8.269591 -2.93729,11.870077 2.07874,3.600486 7.59115,3.391524 11.74864,3.391524 4.15748,0 9.66938,0.208961 11.74812,-3.391524 2.07874,-3.600486 -0.85855,-8.269591 -2.93729,-11.870077 -2.07874,-3.600485 -4.65335,-8.478552 -8.81083,-8.478552 z m 2.3213,7.65638 c 2.27058,0 3.67682,2.663828 4.81211,4.630209 1.13529,1.96638 2.73933,4.516428 1.60404,6.482808 -1.13529,1.96638 -4.14557,1.852083 -6.41615,1.852083 -2.27058,0 -5.28085,0.114297 -6.41614,-1.852083 -1.13529,-1.96638 0.46874,-4.516428 1.60403,-6.482808 1.13529,-1.966381 2.54153,-4.630209 4.81211,-4.630209 z"
         transform="translate(0.69318405,1.8178412)" />
      <path
         id="path1-0"
         style="fill:#000000;stroke-width:10.436"
         d="m 117.54983,64.145972 c 3.86863,-0.0092 8.3164,-0.243167 10.1353,-3.393591 2.07874,-3.600486 -0.85855,-8.269591 -2.93729,-11.870077 -2.07874,-3.600486 -4.65387,-8.478552 -8.81135,-8.478552 -4.15748,0 -6.73209,4.878066 -8.81083,8.478552 -2.07874,3.600486 -5.01603,8.269591 -2.93729,11.870077 2.07874,3.600485 7.59064,3.391524 11.74812,3.391524 0.51968,0 1.06068,0.0034 1.61334,0.0021 z m 1.58956,-3.11919 c -0.30183,7.19e-4 -0.59726,-0.0015 -0.88108,-0.0015 -2.27058,0 -5.28085,0.114297 -6.41614,-1.852083 -1.13529,-1.96638 0.46874,-4.516428 1.60403,-6.482809 1.13529,-1.96638 2.54153,-4.630208 4.81211,-4.630208 2.27058,0 3.67682,2.663828 4.81211,4.630208 1.13529,1.966381 2.73933,4.516428 1.60404,6.482809 -0.99338,1.720582 -3.42224,1.848606 -5.53507,1.853633 z"
         transform="rotate(180,116.28329,73.62523)" />
      <path
         id="path2"
         style="fill:#000000;stroke-width:9.56612"
         d="m 116.63009,66.962838 a 7.5436459,7.5436459 0 0 0 -7.54373,7.543725 7.5436459,7.5436459 0 0 0 7.54373,7.543726 7.5436459,7.5436459 0 0 0 7.54321,-7.543726 7.5436459,7.5436459 0 0 0 -7.54321,-7.543725 z m 5.2095,2.939872 a 1.454825,7.1853978 51.624939 0 1 0.40514,0.121956 1.454825,7.1853978 51.624939 0 1 -4.60333,5.536097 1.454825,7.1853978 51.624939 0 1 -6.62595,3.427697 1.454825,7.1853978 51.624939 0 1 4.60282,-5.536613 1.454825,7.1853978 51.624939 0 1 6.22132,-3.549137 z" />
      <circle
         style="fill:#000000;stroke-width:2.11505"
         id="path2-6"
         cx="116.62988"
         cy="74.506493"
         r="1.6678885" />
    </g>
  </g>
</svg>
