<?xml version="1.0" encoding="UTF-8" standalone="no"?>
<svg
   fill="#ffffff"
   height="36"
   width="20.543604"
   version="1.1"
   id="svg1"
   xmlns="http://www.w3.org/2000/svg"
   xmlns:svg="http://www.w3.org/2000/svg">
  <defs
     id="defs1" />
  <path
     id="path1"
     style="fill:#000000"
     d="m 13.173828,5e-8 c -0.233333,0 -0.465886,0.065886 -0.699219,0.1992187 -0.233333,0.1333325 -0.4,0.284506 -0.5,0.4511719 L 0.12500003,20.449219 c -0.1666666,0.299994 -0.1666666,0.617842 0,0.951171 0.16666419,0.333332 0.4321611,0.5 0.7988281,0.5 H 7.4511721 c 0.318392,0.03201 0.564453,0.321954 0.564453,0.677735 v 0.103515 h 0.002 v 0.570313 l 0.01172,0.01172 -1.654297,11.486328 c -0.06667,0.366662 -7.79e-4,0.667061 0.199219,0.90039 0.199996,0.233332 0.482942,0.34961 0.849609,0.34961 0.233333,0 0.467839,-0.06589 0.701172,-0.199219 0.233332,-0.133333 0.4,-0.284505 0.5,-0.451172 L 20.423828,15.5 c 0.166666,-0.3 0.159897,-0.615886 -0.02344,-0.949219 -0.183329,-0.333332 -0.459508,-0.5 -0.826171,-0.5 H 13.82031 l -0.0059,-0.0059 h -0.662109 v -0.0039 c -0.325219,-0.02466 -0.580078,-0.318634 -0.580078,-0.679687 v -0.103516 h -0.002 V 12.699219 L 14.224609,1.25 C 14.291279,0.88333535 14.22539,0.58294135 14.02539,0.34960935 13.825394,0.11627765 13.540493,5e-8 13.173828,5e-8 Z M 11.566406,7.6601562 c 0.203894,-0.0076 0.363146,0.05446 0.478516,0.183594 0.115369,0.129137 0.157495,0.2989841 0.126953,0.509765 l -0.607422,5.5644538 v 0.0098 0.712891 h 0.002 v 0.130859 c 0,0.457446 0.322333,0.830088 0.734375,0.861328 v 0.0039 h 0.808594 l 2.265625,-0.08398 c 0.203893,-0.0076 0.358915,0.08294 0.466797,0.269531 0.107881,0.186592 0.118591,0.366245 0.03125,0.541016 l -0.726563,1.355469 c -0.754544,-0.302338 -0.223071,-1.182 -0.880859,-0.435547 -0.694728,0.788371 0.241429,0.03352 0.603515,0.953125 l -0.898437,1.673828 c -0.803879,-0.289279 -0.244782,-1.206496 -0.912109,-0.449219 -0.705325,0.800392 0.269862,0.0098 0.61914,0.996094 l -1.169922,2.183594 c -0.793272,-0.292159 -0.240935,-1.200301 -0.90625,-0.445313 -0.702189,0.796839 0.263953,0.01617 0.617188,0.982422 l -1.136719,2.119141 c -0.998433,-0.230401 -0.347383,-1.282326 -1.048828,-0.486328 -0.7101939,0.805922 0.284099,-0.0043 0.626953,1.013672 0.02091,0.06209 0.0352,0.121276 0.04492,0.175781 l -1.0410159,1.943359 c -0.05264,0.09725 -0.142155,0.186619 -0.269531,0.267578 -0.127375,0.08096 -0.255018,0.124099 -0.384765,0.128906 -0.203895,0.0076 -0.363148,-0.05446 -0.478516,-0.183593 -0.11537,-0.129137 -0.159448,-0.298981 -0.128906,-0.509766 l 0.605468,-5.578125 -0.0039,-0.0039 v -0.722656 h -0.002 v -0.13086 c 0,-0.457442 -0.32233,-0.830088 -0.734375,-0.861328 v -0.0039 h -0.839844 l -0.0078,-0.0098 -2.275391,0.08398 c -0.203894,0.0076 -0.356464,-0.08064 -0.455078,-0.267579 -0.09861,-0.186933 -0.102954,-0.368198 -0.01563,-0.542968 l 0.873047,-1.617188 c 0.492964,0.353521 0.106786,1.018781 0.705078,0.339844 0.630174,-0.715116 -0.08407,-0.159555 -0.492187,-0.736328 l 1.30664,-2.419922 c 0.64562,0.327807 0.171541,1.121092 0.806641,0.400391 0.668654,-0.758787 -0.175443,-0.08518 -0.5625,-0.853516 l 1.203125,-2.228516 c 0.672996,0.321883 0.183184,1.13955 0.824218,0.41211 0.6750389,-0.766023 -0.190482,-0.07521 -0.572265,-0.878907 l 1.058594,-1.960937 c 0.9482529,0.246592 0.3205569,1.265055 1.0136709,0.478516 0.710198,-0.8059258 -0.286053,0.0024 -0.628906,-1.0156248 -0.01361,-0.04043 -0.02251,-0.07807 -0.03125,-0.115235 l 0.732422,-1.357422 c 0.05264,-0.09725 0.142161,-0.186618 0.269531,-0.267578 0.127377,-0.08096 0.25697,-0.124096 0.386719,-0.128906 z M 9.2636721,16.943359 c -0.04801,7.94e-4 -0.0865,0.02289 -0.115235,0.06641 -0.02872,0.04351 -0.03147,0.08643 -0.0059,0.13086 l 0.511719,0.884765 -1.6875,0.675782 c -0.0491,0.01757 -0.07947,0.04733 -0.09375,0.08789 -0.01428,0.04056 -0.01002,0.08252 0.01563,0.126953 0.01633,0.02828 0.04174,0.05137 0.07422,0.07031 0.03248,0.01894 0.06265,0.02884 0.08984,0.0293 l 3.2304689,0.04102 c 0.04801,-7.94e-4 0.08571,-0.02478 0.113281,-0.07031 0.02759,-0.04553 0.02756,-0.09033 0.002,-0.134766 L 10.89454,17.98048 12.576181,17.308604 c 0.0491,-0.01757 0.08142,-0.04733 0.0957,-0.08789 0.01428,-0.04056 0.0081,-0.08252 -0.01758,-0.126953 -0.01632,-0.02828 -0.04173,-0.05137 -0.07422,-0.07031 -0.03247,-0.01895 -0.0607,-0.02884 -0.08789,-0.0293 z" />
</svg>
