<?xml version="1.0" encoding="UTF-8" standalone="no"?>
<!-- Created with Inkscape (http://www.inkscape.org/) -->

<svg
   width="118.05739mm"
   height="117.66568mm"
   viewBox="0 0 118.05739 117.66568"
   version="1.1"
   id="svg1"
   xml:space="preserve"
   xmlns="http://www.w3.org/2000/svg"
   xmlns:svg="http://www.w3.org/2000/svg"><defs
     id="defs1" /><g
     id="layer1"
     transform="translate(-383.06266,37.385226)"><path
       id="rect15-5-6-0"
       style="fill:#000000;stroke-width:4.5858;stroke-dasharray:none"
       d="m 383.06265,71.932122 c 0,4.62523 3.72362,8.34833 8.34885,8.34833 h 101.35972 c 4.62522,0 8.34884,-3.7231 8.34884,-8.34833 v -18.92804 c 0,-4.62523 -3.72362,-8.34884 -8.34884,-8.34884 H 391.4115 c -4.62523,0 -8.34885,3.72361 -8.34885,8.34884 z m 0,-36.92281 c 0,2.43439 1.95966,4.39457 4.39405,4.39457 h 26.83712 c 2.4344,0 4.39457,-1.96018 4.39457,-4.39457 V 8.1721923 c 0,-2.4344 -1.96017,-4.39405 -4.39457,-4.39405 H 387.4567 c -2.43439,0 -4.39405,1.95966 -4.39405,4.39405 z m 0,-41.1633797 c 0,2.4344 1.95966,4.39457 4.39405,4.39457 h 26.83712 c 2.4344,0 4.39457,-1.96017 4.39457,-4.39457 V -32.991188 c 0,-2.43438 -1.96017,-4.39404 -4.39457,-4.39404 H 387.4567 c -2.43439,0 -4.39405,1.95966 -4.39405,4.39404 z m 6.70089,-5.0477503 v -16.7411 c 0,-1.51863 1.2223,-2.74091 2.74091,-2.74091 h 16.74163 c 1.51862,0 2.74092,1.22228 2.74092,2.74091 v 16.7411 c 0,1.5186403 -1.2223,2.7414303 -2.74092,2.7414303 h -16.74163 c -1.51861,0 -2.74091,-1.2228 -2.74091,-2.7414303 z m 28.18432,12.3098403 c 0,0.17426 0.067,0.34861 0.20051,0.48214 l 2.944,2.94401 c 0.26706,0.26707 0.6967,0.26707 0.96377,0 l 2.94453,-2.94401 c 0.26705,-0.26707 0.26705,-0.69722001 0,-0.96428001 l -2.94453,-2.94451999 c -0.26706,-0.26706 -0.69671,-0.26706 -0.96377,0 l -2.944,2.94451999 c -0.13353,0.13353 -0.20051,0.30788 -0.20051,0.48214001 z m 2.76418,28.4763097 c 0,0.94391 0.30207,1.70376 0.67747,1.70376 0.37541,0 0.67748,-0.75985 0.67748,-1.70376 v -15.98662 c 0,-0.94392 -0.30206,-1.70429 -0.67748,-1.70429 -0.3754,0 -0.67747,0.76037 -0.67747,1.70429 z m 0,-41.16338 c 0,0.94392 0.30207,1.7042903 0.67747,1.7042903 0.37541,0 0.67748,-0.7603703 0.67748,-1.7042903 v -15.98663 c 0,-0.94392 -0.30206,-1.70376 -0.67748,-1.70376 -0.3754,0 -0.67747,0.75984 -0.67747,1.70376 z m 3.3967,46.58837 c 0,2.43439 1.95965,4.39457 4.39403,4.39457 h 26.83714 c 2.43438,0 4.39405,-1.96019 4.39405,-4.39457 V 8.1722023 c 0,-2.4344 -1.95967,-4.39405 -4.39405,-4.39405 h -26.83714 c -2.43439,0 -4.39403,1.95965 -4.39403,4.39405 z m 0,-41.1633797 c 0,2.4344 1.95965,4.39457 4.39403,4.39457 h 26.83714 c 2.4344,0 4.39405,-1.96017 4.39405,-4.39457 V -32.991178 c 0,-2.43439 -1.95966,-4.39405 -4.39405,-4.39405 h -26.83714 c -2.43439,0 -4.39403,1.95966 -4.39403,4.39405 z m 6.47971,36.2820297 v -17.07441 c 0,-1.54881 1.24688,-2.7957 2.79569,-2.7957 h 17.07442 c 1.5488,0 2.79569,1.24689 2.79569,2.7957 v 17.07441 c 0,1.54881 -1.24689,2.79569 -2.79569,2.79569 h -17.07442 c -1.54881,0 -2.79569,-1.24688 -2.79569,-2.79569 z M 458.96244,1.1183723 c 0,0.17427 0.067,0.34861 0.2005,0.48213 l 2.944,2.94401 c 0.26707,0.26706 0.69669,0.26706 0.96377,0 l 2.94452,-2.94401 c 0.26706,-0.26705 0.26706,-0.69671001 0,-0.96377001 l -2.94452,-2.94451999 c -0.26707,-0.26707 -0.69669,-0.26707 -0.96377,0 l -2.944,2.94451999 c -0.13354,0.13353 -0.2005,0.30737 -0.2005,0.48164001 z m 2.74039,28.4742297 c 0,0.94391 0.3026,1.70377 0.67799,1.70377 0.37541,0 0.67748,-0.75986 0.67748,-1.70377 v -15.98662 c 0,-0.94391 -0.30206,-1.70377 -0.67748,-1.70377 -0.3754,0 -0.67799,0.75986 -0.67799,1.70377 z m 0,-41.17165 c 0,0.94392 0.3026,1.7042903 0.67799,1.7042903 0.37541,0 0.67748,-0.7603703 0.67748,-1.7042903 v -15.98663 c 0,-0.94392 -0.30206,-1.70376 -0.67748,-1.70376 -0.3754,0 -0.67799,0.75984 -0.67799,1.70376 z m 3.45198,46.58837 c 0,2.43439 1.95965,4.39457 4.39405,4.39457 h 26.83712 c 2.43439,0 4.39405,-1.96019 4.39405,-4.39457 V 8.1722023 c 0,-2.4344 -1.95966,-4.39405 -4.39405,-4.39405 h -26.83712 c -2.4344,0 -4.39405,1.95965 -4.39405,4.39405 z m 0,-41.1633797 c 0,2.4344 1.95965,4.39457 4.39405,4.39457 h 26.83712 c 2.43439,0 4.39405,-1.96017 4.39405,-4.39457 V -32.991178 c 0,-2.43438 -1.95966,-4.39405 -4.39405,-4.39405 h -26.83712 c -2.4344,0 -4.39405,1.95967 -4.39405,4.39405 z m 6.47971,-4.8808303 v -17.07442 c 0,-1.54879 1.2469,-2.79569 2.7957,-2.79569 h 17.07389 c 1.54881,0 2.7957,1.2469 2.7957,2.79569 v 17.07442 c 0,1.5488003 -1.24689,2.7956903 -2.7957,2.7956903 h -17.07389 c -1.5488,0 -2.7957,-1.24689 -2.7957,-2.7956903 z" /></g></svg>
