<?xml version="1.0" encoding="UTF-8" standalone="no"?>
<!-- Created with Inkscape (http://www.inkscape.org/) -->

<svg
   width="117.66568mm"
   height="118.0574mm"
   viewBox="0 0 117.66568 118.0574"
   version="1.1"
   id="svg1"
   xml:space="preserve"
   xmlns="http://www.w3.org/2000/svg"
   xmlns:svg="http://www.w3.org/2000/svg"><defs
     id="defs1" /><g
     id="layer1"
     transform="translate(-305.5947,178.86288)"><path
       id="rect15-5-6"
       style="fill:#000000;stroke-width:4.5858;stroke-dasharray:none"
       d="m 313.94305,-178.86289 c -4.62523,0 -8.34833,3.72362 -8.34833,8.34885 v 101.359712 c 0,4.62522 3.7231,8.34884 8.34833,8.34884 h 18.92804 c 4.62523,0 8.34884,-3.72362 8.34884,-8.34884 V -170.51404 c 0,-4.62523 -3.72361,-8.34885 -8.34884,-8.34885 z m 36.92281,0 c -2.43439,0 -4.39457,1.95966 -4.39457,4.39405 v 26.83712 c 0,2.4344 1.96018,4.39457 4.39457,4.39457 h 26.83712 c 2.4344,0 4.39405,-1.96017 4.39405,-4.39457 v -26.83712 c 0,-2.43439 -1.95965,-4.39405 -4.39405,-4.39405 z m 41.16338,0 c -2.4344,0 -4.39457,1.95966 -4.39457,4.39405 v 26.83712 c 0,2.4344 1.96017,4.39457 4.39457,4.39457 h 26.83712 c 2.43438,0 4.39405,-1.96017 4.39405,-4.39457 v -26.83712 c 0,-2.43439 -1.95967,-4.39405 -4.39405,-4.39405 z m 5.04776,6.70089 h 16.7411 c 1.51862,0 2.74091,1.2223 2.74091,2.74091 v 16.74162 c 0,1.51862 -1.22229,2.74092 -2.74091,2.74092 H 397.077 c -1.51863,0 -2.74143,-1.2223 -2.74143,-2.74092 v -16.74162 c 0,-1.51861 1.2228,-2.74091 2.74143,-2.74091 z m -12.30985,28.18432 c -0.17426,0 -0.3486,0.067 -0.48214,0.20051 l -2.94401,2.944 c -0.26707,0.26706 -0.26707,0.6967 0,0.96377 l 2.94401,2.94452 c 0.26707,0.26706 0.69722,0.26706 0.96428,0 l 2.94452,-2.94452 c 0.26706,-0.26707 0.26706,-0.69671 0,-0.96377 l -2.94452,-2.944 c -0.13353,-0.13353 -0.30788,-0.20051 -0.48214,-0.20051 z m -28.4763,2.76418 c -0.94392,0 -1.70377,0.30207 -1.70377,0.67747 0,0.37541 0.75985,0.67748 1.70377,0.67748 h 15.98662 c 0.94392,0 1.70429,-0.30207 1.70429,-0.67748 0,-0.3754 -0.76037,-0.67747 -1.70429,-0.67747 z m 41.16339,0 c -0.94392,0 -1.70429,0.30207 -1.70429,0.67747 0,0.37541 0.76037,0.67748 1.70429,0.67748 h 15.98662 c 0.94392,0 1.70376,-0.30207 1.70376,-0.67748 0,-0.3754 -0.75984,-0.67747 -1.70376,-0.67747 z m -46.58838,3.39669 c -2.43439,0 -4.39457,1.95965 -4.39457,4.39404 v 26.83713 c 0,2.43438 1.96018,4.39405 4.39457,4.39405 h 26.83712 c 2.4344,0 4.39405,-1.95967 4.39405,-4.39405 v -26.83713 c 0,-2.43439 -1.95965,-4.39404 -4.39405,-4.39404 z m 41.16338,0 c -2.4344,0 -4.39457,1.95965 -4.39457,4.39404 v 26.83713 c 0,2.43439 1.96017,4.39405 4.39457,4.39405 h 26.83712 c 2.43439,0 4.39405,-1.95966 4.39405,-4.39405 v -26.83713 c 0,-2.43439 -1.95966,-4.39404 -4.39405,-4.39404 z m -36.28203,6.47971 h 17.07441 c 1.54881,0 2.7957,1.24688 2.7957,2.79569 v 17.07441 c 0,1.5488 -1.24689,2.79569 -2.7957,2.79569 h -17.07441 c -1.54881,0 -2.79569,-1.24689 -2.79569,-2.79569 v -17.07441 c 0,-1.54881 1.24688,-2.79569 2.79569,-2.79569 z m 29.0096,28.37398 c -0.17427,0 -0.34861,0.067 -0.48214,0.2005 l -2.94401,2.944012 c -0.26706,0.26707 -0.26706,0.69669 0,0.96376 l 2.94401,2.94453 c 0.26706,0.26706 0.69671,0.26706 0.96377,0 l 2.94452,-2.94453 c 0.26707,-0.26707 0.26707,-0.69669 0,-0.96376 l -2.94452,-2.944012 c -0.13353,-0.13353 -0.30737,-0.2005 -0.48163,-0.2005 z m -28.47423,2.7404 c -0.94391,0 -1.70377,0.302592 -1.70377,0.677992 0,0.37541 0.75986,0.67748 1.70377,0.67748 h 15.98662 c 0.94391,0 1.70377,-0.30207 1.70377,-0.67748 0,-0.3754 -0.75986,-0.677992 -1.70377,-0.677992 z m 41.17166,0 c -0.94392,0 -1.70429,0.302592 -1.70429,0.677992 0,0.37541 0.76037,0.67748 1.70429,0.67748 h 15.98662 c 0.94392,0 1.70376,-0.30207 1.70376,-0.67748 0,-0.3754 -0.75984,-0.677992 -1.70376,-0.677992 z m -46.58838,3.451982 c -2.43439,0 -4.39457,1.95965 -4.39457,4.39405 v 26.83712 c 0,2.43439 1.96018,4.39405 4.39457,4.39405 h 26.83712 c 2.4344,0 4.39405,-1.95966 4.39405,-4.39405 v -26.83712 c 0,-2.4344 -1.95965,-4.39405 -4.39405,-4.39405 z m 41.16338,0 c -2.4344,0 -4.39457,1.95965 -4.39457,4.39405 v 26.83712 c 0,2.43439 1.96017,4.39405 4.39457,4.39405 h 26.83712 c 2.43438,0 4.39405,-1.95966 4.39405,-4.39405 v -26.83712 c 0,-2.4344 -1.95967,-4.39405 -4.39405,-4.39405 z m 4.88084,6.47971 h 17.07441 c 1.54879,0 2.79569,1.2469 2.79569,2.7957 v 17.07389 c 0,1.54881 -1.2469,2.7957 -2.79569,2.7957 h -17.07441 c -1.5488,0 -2.79569,-1.24689 -2.79569,-2.7957 v -17.07389 c 0,-1.5488 1.24689,-2.7957 2.79569,-2.7957 z" /></g></svg>
