<?xml version="1.0" encoding="UTF-8" standalone="no"?>
<!-- Created with Inkscape (http://www.inkscape.org/) -->

<svg
   width="118.05739mm"
   height="117.66569mm"
   viewBox="0 0 118.05739 117.66569"
   version="1.1"
   id="svg1"
   xml:space="preserve"
   xmlns="http://www.w3.org/2000/svg"
   xmlns:svg="http://www.w3.org/2000/svg"><defs
     id="defs1" /><g
     id="layer1"
     transform="translate(-383.06266,320.68334)"><path
       id="rect15-5-6-5"
       style="fill:#000000;stroke-width:4.5858;stroke-dasharray:none"
       d="m 501.12006,-312.335 c 0,-4.62523 -3.72362,-8.34833 -8.34885,-8.34833 H 391.4115 c -4.62522,0 -8.34884,3.7231 -8.34884,8.34833 v 18.92804 c 0,4.62523 3.72362,8.34884 8.34884,8.34884 h 101.35971 c 4.62523,0 8.34885,-3.72361 8.34885,-8.34884 z m 0,36.92281 c 0,-2.43439 -1.95966,-4.39457 -4.39405,-4.39457 h -26.83712 c -2.4344,0 -4.39457,1.96018 -4.39457,4.39457 v 26.83711 c 0,2.4344 1.96017,4.39405 4.39457,4.39405 h 26.83712 c 2.43439,0 4.39405,-1.95965 4.39405,-4.39405 z m 0,41.16337 c 0,-2.4344 -1.95966,-4.39457 -4.39405,-4.39457 h -26.83712 c -2.4344,0 -4.39457,1.96017 -4.39457,4.39457 v 26.83712 c 0,2.43438 1.96017,4.39405 4.39457,4.39405 h 26.83712 c 2.43439,0 4.39405,-1.95967 4.39405,-4.39405 z m -6.70089,5.04775 v 16.7411 c 0,1.51863 -1.2223,2.74092 -2.74091,2.74092 h -16.74162 c -1.51862,0 -2.74092,-1.22229 -2.74092,-2.74092 v -16.7411 c 0,-1.51863 1.2223,-2.74143 2.74092,-2.74143 h 16.74162 c 1.51861,0 2.74091,1.2228 2.74091,2.74143 z m -28.18432,-12.30984 c 0,-0.17426 -0.067,-0.3486 -0.20051,-0.48214 l -2.944,-2.94401 c -0.26706,-0.26707 -0.6967,-0.26707 -0.96377,0 l -2.94452,2.94401 c -0.26706,0.26707 -0.26706,0.69722 0,0.96428 l 2.94452,2.94452 c 0.26707,0.26706 0.69671,0.26706 0.96377,0 l 2.944,-2.94452 c 0.13353,-0.13353 0.20051,-0.30788 0.20051,-0.48214 z m -2.76418,-28.47629 c 0,-0.94392 -0.30207,-1.70377 -0.67747,-1.70377 -0.37541,0 -0.67748,0.75985 -0.67748,1.70377 v 15.98661 c 0,0.94392 0.30207,1.70429 0.67748,1.70429 0.3754,0 0.67747,-0.76037 0.67747,-1.70429 z m 0,41.16337 c 0,-0.94392 -0.30207,-1.70429 -0.67747,-1.70429 -0.37541,0 -0.67748,0.76037 -0.67748,1.70429 v 15.98662 c 0,0.94393 0.30207,1.70377 0.67748,1.70377 0.3754,0 0.67747,-0.75984 0.67747,-1.70377 z m -3.39669,-46.58836 c 0,-2.43439 -1.95965,-4.39457 -4.39404,-4.39457 h -26.83713 c -2.43438,0 -4.39405,1.96018 -4.39405,4.39457 v 26.83711 c 0,2.4344 1.95967,4.39405 4.39405,4.39405 h 26.83713 c 2.43439,0 4.39404,-1.95965 4.39404,-4.39405 z m 0,41.16337 c 0,-2.4344 -1.95965,-4.39457 -4.39404,-4.39457 h -26.83713 c -2.43439,0 -4.39405,1.96017 -4.39405,4.39457 v 26.83712 c 0,2.43439 1.95966,4.39405 4.39405,4.39405 h 26.83713 c 2.43439,0 4.39404,-1.95966 4.39404,-4.39405 z m -6.47972,-36.28202 v 17.0744 c 0,1.54881 -1.24688,2.7957 -2.79569,2.7957 h -17.0744 c -1.5488,0 -2.79569,-1.24689 -2.79569,-2.7957 v -17.0744 c 0,-1.54881 1.24689,-2.79569 2.79569,-2.79569 h 17.0744 c 1.54881,0 2.79569,1.24688 2.79569,2.79569 z m -28.37397,29.00959 c 0,-0.17427 -0.067,-0.34861 -0.2005,-0.48214 l -2.94401,-2.94401 c -0.26707,-0.26706 -0.69669,-0.26706 -0.96376,0 l -2.94453,2.94401 c -0.26706,0.26706 -0.26706,0.69671 0,0.96377 l 2.94453,2.94452 c 0.26707,0.26707 0.69669,0.26707 0.96376,0 l 2.94401,-2.94452 c 0.13353,-0.13353 0.2005,-0.30737 0.2005,-0.48163 z m -2.7404,-28.47422 c 0,-0.94391 -0.30259,-1.70377 -0.67799,-1.70377 -0.37541,0 -0.67748,0.75986 -0.67748,1.70377 v 15.98661 c 0,0.94391 0.30207,1.70377 0.67748,1.70377 0.3754,0 0.67799,-0.75986 0.67799,-1.70377 z m 0,41.17164 c 0,-0.94392 -0.30259,-1.70429 -0.67799,-1.70429 -0.37541,0 -0.67748,0.76037 -0.67748,1.70429 v 15.98662 c 0,0.94393 0.30207,1.70377 0.67748,1.70377 0.3754,0 0.67799,-0.75984 0.67799,-1.70377 z m -3.45198,-46.58836 c 0,-2.43439 -1.95965,-4.39457 -4.39405,-4.39457 h -26.83712 c -2.43439,0 -4.39405,1.96018 -4.39405,4.39457 v 26.83711 c 0,2.4344 1.95966,4.39405 4.39405,4.39405 h 26.83712 c 2.4344,0 4.39405,-1.95965 4.39405,-4.39405 z m 0,41.16337 c 0,-2.4344 -1.95965,-4.39457 -4.39405,-4.39457 h -26.83712 c -2.43439,0 -4.39405,1.96017 -4.39405,4.39457 v 26.83712 c 0,2.43438 1.95966,4.39405 4.39405,4.39405 h 26.83712 c 2.4344,0 4.39405,-1.95967 4.39405,-4.39405 z m -6.4797,4.88083 v 17.07442 c 0,1.54879 -1.2469,2.79569 -2.7957,2.79569 h -17.0739 c -1.54881,0 -2.7957,-1.2469 -2.7957,-2.79569 v -17.07442 c 0,-1.5488 1.24689,-2.79569 2.7957,-2.79569 h 17.0739 c 1.5488,0 2.7957,1.24689 2.7957,2.79569 z" /></g></svg>
