<?xml version="1.0" encoding="UTF-8" standalone="no"?>
<!-- Created with Inkscape (http://www.inkscape.org/) -->

<svg
   width="116.48533mm"
   height="117.799mm"
   viewBox="0 0 116.48533 117.799"
   version="1.1"
   id="svg1"
   xml:space="preserve"
   xmlns="http://www.w3.org/2000/svg"
   xmlns:svg="http://www.w3.org/2000/svg"><defs
     id="defs1" /><g
     id="layer1"
     transform="translate(-969.48647,-180.88359)"><g
       id="g6"
       transform="translate(1328.8867,157.96741)"><rect
         style="fill:#000000;stroke-width:3.5018"
         id="rect4"
         width="30.081472"
         height="30.029213"
         x="-316.19824"
         y="66.801079"
         rx="6"
         ry="6" /><rect
         style="fill:#000000;stroke-width:1.65903"
         id="rect4-1"
         width="14.251564"
         height="14.226806"
         x="-285.052"
         y="51.489838"
         rx="4"
         ry="4" /><rect
         style="fill:#000000;stroke-width:1.65903"
         id="rect4-1-0"
         width="14.251564"
         height="14.226806"
         x="-331.55145"
         y="97.97448"
         rx="4"
         ry="4" /><path
         id="rect5"
         style="fill:#000000;stroke-width:13.9941"
         d="m -353.40005,22.91617 c -3.324,0 -6.00015,2.67564 -6.00015,5.99964 v 81.99913 c 0,3.32399 2.67615,6.00015 6.00015,6.00015 h 17.25476 V 52.715896 c 0,-3.32399 2.67615,-6.00015 6.00015,-6.00015 h 63.97542 V 28.91581 c 0,-3.324 -2.67615,-5.99964 -6.00015,-5.99964 z m 87.23033,23.799576 v 64.199194 c 0,3.32399 -2.67615,6.00015 -6.00015,6.00015 h -63.97542 v 17.79994 c 0,3.324 2.67615,6.00015 6.00015,6.00015 h 81.2307 c 3.324,0 5.99963,-2.67615 5.99963,-6.00015 V 52.715896 c 0,-3.32399 -2.67563,-6.00015 -5.99963,-6.00015 z" /></g></g></svg>
