<?xml version="1.0" encoding="UTF-8" standalone="no"?>
<!-- Created with Inkscape (http://www.inkscape.org/) -->

<svg
   width="117.56698mm"
   height="114.91754mm"
   viewBox="0 0 117.56698 114.91754"
   version="1.1"
   id="svg1"
   xml:space="preserve"
   xmlns="http://www.w3.org/2000/svg"
   xmlns:svg="http://www.w3.org/2000/svg"><defs
     id="defs1" /><g
     id="layer1"
     transform="translate(-336.29429,-293.01772)"><path
       id="rect1-5-5-9-2-3"
       style="fill:#000000;stroke-width:0.593623"
       d="m 346.29419,293.0177 c -5.5399,0 -9.9999,4.45996 -9.9999,9.99991 v 94.91772 c 0,5.53996 4.46,9.99991 9.9999,9.99991 h 97.56717 c 5.53992,0 9.99991,-4.45995 9.99991,-9.99991 v -94.91772 c 0,-5.53995 -4.45999,-9.99991 -9.99991,-9.99991 z m 0.96119,7.02903 h 32.9339 c 0.24081,0 0.47497,0.0259 0.70125,0.0734 l -9.09092,9.09092 h -11.75638 c -3.97864,0 -7.182,3.20334 -7.182,7.18199 v 11.75639 l -8.68784,8.68784 c -0.18697,-0.42013 -0.29352,-0.88456 -0.29352,-1.37563 v -32.03939 c 0,-1.86995 1.5055,-3.3755 3.37551,-3.3755 z m 63.78525,0 h 32.93339 c 1.87003,0 3.3755,1.50556 3.3755,3.3755 v 32.03939 c 0,0.49107 -0.10603,0.9555 -0.293,1.37563 l -9.7622,-9.76219 v -10.68204 c 0,-3.97865 -3.20334,-7.18199 -7.18199,-7.18199 h -10.68255 l -9.09092,-9.09092 c 0.22628,-0.0475 0.46095,-0.0734 0.70177,-0.0734 z m -15.96285,5.56193 c 3.05812,0 4.9522,3.5908 6.48126,6.24097 1.52906,2.65014 3.68965,6.08676 2.16059,8.73693 -1.52906,2.65017 -5.58373,2.49649 -8.64185,2.49649 -3.05812,0 -7.11279,0.15368 -8.64185,-2.49649 -1.52906,-2.65017 0.63153,-6.08679 2.16059,-8.73693 1.52906,-2.65017 3.42314,-6.24097 6.48126,-6.24097 z m -14.84457,27.38335 h 29.68914 c 1.68576,0 3.04271,1.35746 3.04271,3.04322 v 28.88248 c 0,1.68576 -1.35695,3.04271 -3.04271,3.04271 h -29.68914 c -1.68577,0 -3.04271,-1.35695 -3.04271,-3.04271 v -28.88248 c 0,-1.68576 1.35694,-3.04322 3.04271,-3.04322 z m -17.33279,8.32042 c 0.73627,-0.0114 1.44792,0.14018 2.11046,0.52245 2.65017,1.52906 2.49649,5.58321 2.49649,8.64133 0,3.05812 0.15368,7.11279 -2.49649,8.64185 -2.65017,1.52906 -6.08676,-0.63153 -8.73693,-2.16059 -2.65017,-1.52906 -6.24097,-3.42314 -6.24097,-6.48126 0,-3.05812 3.5908,-4.95168 6.24097,-6.48074 1.98762,-1.1468 4.41765,-2.64882 6.62647,-2.68304 z m 65.16863,0 c 2.2088,0.0342 4.63884,1.53625 6.62647,2.68304 2.65015,1.52906 6.24044,3.42263 6.24044,6.48074 0,3.05812 -3.59029,4.9522 -6.24044,6.48126 -2.65017,1.52906 -6.08677,3.68965 -8.73694,2.16059 -2.65017,-1.52906 -2.49649,-5.58373 -2.49649,-8.64185 0,-3.05811 -0.15368,-7.11227 2.49649,-8.64133 0.66254,-0.38226 1.37419,-0.53385 2.11047,-0.52245 z m -38.88187,2.22622 c -0.66892,0 -1.20716,0.53824 -1.20716,1.20716 v 11.46132 c 0,0.66892 0.53824,1.20716 1.20716,1.20716 h 11.7812 c 0.66885,0 1.20716,-0.53824 1.20716,-1.20716 v -11.46132 c 0,-0.66892 -0.53831,-1.20716 -1.20716,-1.20716 z m -44.94506,19.68976 8.61911,8.61911 v 12.7124 c 0,3.97863 3.20336,7.18199 7.182,7.18199 h 12.71188 l 8.20415,8.20415 c -0.22628,0.0475 -0.46044,0.0734 -0.70125,0.0734 H 347.3241 c -1.86995,0 -3.3755,-1.50556 -3.3755,-3.3755 v -32.03939 c 0,-0.49107 0.10655,-0.95607 0.29352,-1.37614 z m 102.8144,0 c 0.18697,0.42008 0.293,0.88507 0.293,1.37614 v 32.03939 c 0,1.86995 -1.50548,3.3755 -3.3755,3.3755 h -32.93339 c -0.24082,0 -0.47549,-0.0259 -0.70177,-0.0734 l 8.20415,-8.20415 h 11.56932 c 3.97865,0 7.18199,-3.20336 7.18199,-7.18199 v -11.56932 z m -53.16523,14.32367 c 0.40652,-9.7e-4 0.80422,0.002 1.18649,0.002 3.05812,0 7.11279,-0.1542 8.64185,2.49597 1.52906,2.65017 -0.63153,6.08677 -2.16059,8.73694 -1.52906,2.65016 -3.42314,6.24096 -6.48126,6.24096 -3.05812,0 -4.9522,-3.5908 -6.48126,-6.24096 -1.52906,-2.65017 -3.68965,-6.08677 -2.16059,-8.73694 1.33793,-2.3189 4.60971,-2.49074 7.45536,-2.49752 z" /></g></svg>
