<?xml version="1.0" encoding="UTF-8" standalone="no"?>
<!-- Created with Inkscape (http://www.inkscape.org/) -->

<svg
   width="117.56698mm"
   height="114.91754mm"
   viewBox="0 0 117.56698 114.91754"
   version="1.1"
   id="svg1"
   xml:space="preserve"
   xmlns="http://www.w3.org/2000/svg"
   xmlns:svg="http://www.w3.org/2000/svg"><defs
     id="defs1" /><g
     id="layer1"
     transform="translate(-477.57997,-292.10061)"><path
       id="rect1-5-5-9-2"
       style="fill:#000000;stroke-width:0.593623"
       d="m 487.57986,292.1006 c -5.53994,0 -9.9999,4.45997 -9.9999,9.9999 v 94.91773 c 0,5.53998 4.45996,9.99991 9.9999,9.99991 h 97.56717 c 5.53992,0 9.99991,-4.45993 9.99991,-9.99991 V 302.1005 c 0,-5.53993 -4.45999,-9.9999 -9.99991,-9.9999 z m 0.96118,7.02903 h 32.93391 c 0.24081,0 0.47497,0.0259 0.70125,0.0734 l -9.09092,9.09092 h -11.75639 c -3.97863,0 -7.18199,3.20334 -7.18199,7.18199 v 11.75639 l -8.68784,8.68784 c -0.18697,-0.42013 -0.29352,-0.88456 -0.29352,-1.37563 v -32.03939 c 0,-1.87001 1.5055,-3.3755 3.3755,-3.3755 z m 63.78526,0 h 32.93339 c 1.87001,0 3.3755,1.5055 3.3755,3.3755 v 32.03939 c 0,0.49107 -0.10603,0.9555 -0.293,1.37563 l -9.7622,-9.7622 v -10.68203 c 0,-3.97865 -3.20334,-7.18199 -7.18199,-7.18199 h -10.68255 l -9.09092,-9.09092 c 0.22628,-0.0475 0.46096,-0.0734 0.70177,-0.0734 z m -41.97832,19.78742 h 52.03093 c 2.95439,0 5.33301,2.37862 5.33301,5.33301 v 50.61862 c 0,2.9544 -2.37862,5.333 -5.33301,5.333 h -52.03093 c -2.95439,0 -5.33301,-2.3786 -5.33301,-5.333 v -50.61862 c 0,-2.95439 2.37862,-5.33301 5.33301,-5.33301 z m 8.77208,10.33219 c -1.95823,0 -3.53467,1.57644 -3.53467,3.53467 v 33.55092 c 0,1.95822 1.57644,3.53467 3.53467,3.53467 h 34.48678 c 1.95822,0 3.53467,-1.57645 3.53467,-3.53467 v -33.55092 c 0,-1.95823 -1.57645,-3.53467 -3.53467,-3.53467 z m 13.26379,8.3106 h 7.9592 c 4.43199,0 8.00003,3.56804 8.00003,8.00003 v 7.999 c 0,4.43199 -3.56804,8.00002 -8.00003,8.00002 h -7.9592 c -4.432,0 -8.00003,-3.56803 -8.00003,-8.00002 v -7.999 c 0,-4.43199 3.56803,-8.00003 8.00003,-8.00003 z m -46.85606,24.75146 8.61911,8.61912 v 12.7124 c 0,3.97865 3.20336,7.18199 7.18199,7.18199 h 12.71189 l 8.20415,8.20415 c -0.22628,0.0475 -0.46044,0.0734 -0.70125,0.0734 h -32.93391 c -1.87,0 -3.3755,-1.50555 -3.3755,-3.37551 v -32.03938 c 0,-0.49107 0.10655,-0.95607 0.29352,-1.37615 z m 102.8144,0 c 0.18697,0.42009 0.293,0.88508 0.293,1.37615 v 32.03938 c 0,1.86997 -1.50549,3.37551 -3.3755,3.37551 H 552.3263 c -0.24081,0 -0.47549,-0.0259 -0.70177,-0.0734 l 8.20415,-8.20415 H 571.398 c 3.97865,0 7.18199,-3.20334 7.18199,-7.18199 v -11.56932 z" /></g></svg>
