<?xml version="1.0" encoding="UTF-8" standalone="no"?>
<!-- Created with Inkscape (http://www.inkscape.org/) -->

<svg
   width="117.56698mm"
   height="114.9175mm"
   viewBox="0 0 117.56698 114.9175"
   version="1.1"
   id="svg1"
   xml:space="preserve"
   xmlns="http://www.w3.org/2000/svg"
   xmlns:svg="http://www.w3.org/2000/svg"><defs
     id="defs1" /><g
     id="layer1"
     transform="translate(-619.65382,-292.46609)"><path
       id="rect1-5-5-9-2-3-2"
       style="fill:#000000;stroke-width:0.593623"
       d="m 629.65376,292.46608 c -5.53992,0 -9.9999,4.45996 -9.9999,9.99991 v 94.91772 c 0,5.53993 4.45998,9.9999 9.9999,9.9999 h 97.56717 c 5.53992,0 9.99991,-4.45997 9.99991,-9.9999 v -94.91772 c 0,-5.53995 -4.45999,-9.99991 -9.99991,-9.99991 z m 0.96118,7.02903 h 32.93391 c 0.24081,0 0.47497,0.0259 0.70125,0.0734 l -9.09092,9.09092 h -11.75639 c -3.9786,0 -7.18199,3.20334 -7.18199,7.18199 v 11.75639 l -8.68784,8.68784 c -0.18697,-0.42013 -0.29352,-0.88456 -0.29352,-1.37563 v -32.03939 c 0,-1.86997 1.50552,-3.3755 3.3755,-3.3755 z m 63.78526,0 h 32.93339 c 1.87003,0 3.3755,1.50554 3.3755,3.3755 V 334.91 c 0,0.49107 -0.10603,0.9555 -0.293,1.37563 l -9.7622,-9.7622 V 315.8414 c 0,-3.97865 -3.20334,-7.18199 -7.18199,-7.18199 h -10.68255 l -9.09092,-9.09092 c 0.22628,-0.0475 0.46095,-0.0734 0.70177,-0.0734 z m -15.96285,0.71985 c 5.74436,0 9.30227,5.51387 12.17445,9.5834 2.87218,4.06949 6.93034,9.34674 4.05815,13.41623 -2.87218,4.06953 -10.48824,3.83284 -16.2326,3.83284 -5.74436,0 -13.36042,0.23669 -16.2326,-3.83284 -2.87218,-4.06949 1.18597,-9.34674 4.05815,-13.41623 2.87218,-4.06953 6.43009,-9.5834 12.17445,-9.5834 z m -14.84457,32.22543 h 29.68914 c 1.68576,0 3.04271,1.35745 3.04271,3.04322 v 28.88247 c 0,1.68577 -1.35695,3.04271 -3.04271,3.04271 h -29.68914 c -1.68577,0 -3.04271,-1.35694 -3.04271,-3.04271 v -28.88247 c 0,-1.68577 1.35694,-3.04322 3.04271,-3.04322 z m -16.56592,0.27078 c 1.1306,-0.0214 2.22325,0.2633 3.24063,0.98133 4.06952,2.8722 3.83336,10.48823 3.83336,16.23261 0,5.74437 0.23616,13.35989 -3.83336,16.23208 -4.06952,2.87219 -9.34671,-1.18596 -13.41623,-4.05815 -4.06952,-2.87219 -9.58288,-6.42956 -9.58288,-12.17393 0,-5.74438 5.51336,-9.30227 9.58288,-12.17445 3.05214,-2.15415 6.78381,-4.97522 10.1756,-5.03949 z m 63.03388,0 c 3.3918,0.0643 7.12346,2.88534 10.17561,5.03949 4.0695,2.87217 9.58287,6.43007 9.58288,12.17445 0,5.74436 -5.51338,9.30174 -9.58288,12.17393 -4.06953,2.87219 -9.34671,6.93034 -13.41624,4.05815 -4.0695,-2.87219 -3.83336,-10.48772 -3.83336,-16.23208 0,-5.74438 -0.23614,-13.36041 3.83336,-16.23261 1.01738,-0.71802 2.11003,-1.00275 3.24063,-0.98133 z m -37.51399,10.27586 c -0.66891,0 -1.20716,0.53823 -1.20716,1.20716 v 11.46132 c 0,0.66889 0.53825,1.20716 1.20716,1.20716 h 11.7812 c 0.66888,0 1.20716,-0.53827 1.20716,-1.20716 v -11.46132 c 0,-0.66893 -0.53828,-1.20716 -1.20716,-1.20716 z m -44.94506,19.68975 8.61911,8.61911 v 12.71241 c 0,3.97859 3.20339,7.18199 7.18199,7.18199 h 12.71189 l 8.20415,8.20415 c -0.22628,0.0475 -0.46044,0.0734 -0.70125,0.0734 h -32.93391 c -1.86998,0 -3.3755,-1.50555 -3.3755,-3.37551 v -32.03938 c 0,-0.49105 0.10655,-0.95607 0.29352,-1.37615 z m 102.8144,0 c 0.18697,0.42009 0.293,0.8851 0.293,1.37615 v 32.03938 c 0,1.86997 -1.50548,3.37551 -3.3755,3.37551 H 694.4002 c -0.24082,0 -0.47549,-0.0259 -0.70177,-0.0734 l 8.20415,-8.20415 h 11.56932 c 3.97865,0 7.18199,-3.2034 7.18199,-7.18199 v -11.56932 z m -54.20755,10.19886 c 0.76362,-10e-4 1.51076,0.002 2.22881,0.002 5.74438,0 13.36041,-0.23617 16.2326,3.83336 2.87219,4.06952 -1.18596,9.34671 -4.05815,13.41623 -2.87219,4.06953 -6.43007,9.58288 -12.17445,9.58288 -5.74438,0 -9.30226,-5.51335 -12.17445,-9.58288 -2.87219,-4.06952 -6.93034,-9.34671 -4.05815,-13.41623 2.51316,-3.56084 8.65852,-3.82502 14.00379,-3.83543 z" /></g></svg>
