<?xml version="1.0" encoding="UTF-8" standalone="no"?>
<!-- Created with Inkscape (http://www.inkscape.org/) -->

<svg
   width="6.8757968mm"
   height="6.8757968mm"
   viewBox="0 0 6.8757968 6.8757968"
   version="1.1"
   id="svg5"
   xml:space="preserve"
   xmlns="http://www.w3.org/2000/svg"
   xmlns:svg="http://www.w3.org/2000/svg"><defs
     id="defs2" /><g
     id="layer1"
     transform="translate(-126.26242,-84.064676)"><g
       id="g1698"
       transform="translate(4.660107,-1.336468)"><circle
         style="fill:#d42c29;fill-opacity:1;stroke-width:0.264583"
         id="path228-6-6"
         cx="125.04021"
         cy="88.839043"
         r="3.4378984" /><path
         id="path292-6"
         style="fill:#ffffff;stroke-width:0.143511"
         d="m 123.66738,87.044914 c -0.30412,-0.0026 -0.40615,0.285816 -0.44567,0.942075 1.27946,0.787426 1.2776,1.001218 -0.0205,1.753535 0.037,0.87249 0.21951,1.056162 0.90311,0.763244 0.88657,-1.463849 1.07179,-1.460342 1.91976,0.02803 0.61476,0.257631 0.78152,0.0402 0.83472,-0.840056 -1.27946,-0.787412 -1.27761,-1.001205 0.0204,-1.753525 -0.037,-0.872486 -0.21952,-1.056166 -0.90312,-0.763249 -0.88655,1.463845 -1.0718,1.46035 -1.91975,-0.02802 -0.15688,-0.06581 -0.28508,-0.10111 -0.38904,-0.102029 z" /></g></g></svg>
