<?xml version="1.0" encoding="UTF-8" standalone="no"?>
<!-- Created with Inkscape (http://www.inkscape.org/) -->

<svg
   width="6.8757968mm"
   height="6.8757968mm"
   viewBox="0 0 6.8757968 6.8757968"
   version="1.1"
   id="svg5"
   xml:space="preserve"
   xmlns="http://www.w3.org/2000/svg"
   xmlns:svg="http://www.w3.org/2000/svg"><defs
     id="defs2" /><g
     id="layer1"
     transform="translate(-143.18064,-84.290521)"><g
       id="g1683"
       transform="translate(4.4815411,-1.3880124)"><circle
         style="fill:#5ad079;fill-opacity:1;stroke-width:0.264583"
         id="path228-6-5-3-9-6"
         cx="142.13699"
         cy="89.116432"
         r="3.4378984" /><g
         id="g283"
         transform="matrix(1.3018698,0,0,1.3018698,-31.608822,-34.598329)"><g
           id="g270"><path
             id="path292-5-53"
             style="fill:#ffffff;stroke-width:0.113027"
             d="m 134.4891,93.880698 c -0.23779,-0.0987 -0.69759,0.0625 -1.57157,0.40353 -1.06904,0.41716 -1.48465,0.6067 -1.25252,0.85438 0.20867,-0.0964 0.48403,-0.20672 0.82698,-0.34055 1.74793,-0.68208 1.83869,-0.64444 1.81204,0.75191 -0.005,0.27006 -0.0131,0.48896 -0.0344,0.66167 0.40398,0.0119 0.44397,-0.33536 0.46,-1.17551 0.0133,-0.69817 -0.003,-1.05675 -0.24048,-1.15543 z" /><g
             id="g265"><path
               id="path292-5-5-5"
               style="fill:#ffffff;stroke-width:0.0957342"
               d="m 134.22219,94.197478 c -0.20141,-0.0836 -0.59086,0.0529 -1.33112,0.34179 -0.90548,0.35334 -1.25751,0.51388 -1.06089,0.72366 0.17674,-0.0817 0.40997,-0.17509 0.70045,-0.28844 1.48051,-0.57773 1.55738,-0.54584 1.53481,0.63687 -0.004,0.22874 -0.0111,0.41415 -0.0291,0.56043 0.34217,0.0101 0.37604,-0.28405 0.38962,-0.99566 0.0113,-0.59135 -0.003,-0.89507 -0.20369,-0.97865 z" /></g></g><g
           id="g274"
           transform="translate(1.1125353,-1.4401847)"><path
             id="path292-5-3-6"
             style="fill:#ffffff;stroke-width:0.113027"
             d="m 131.31571,97.616528 c 0.2378,0.0987 0.6976,-0.0625 1.57157,-0.403531 1.06904,-0.417159 1.48465,-0.6067 1.25252,-0.854389 -0.20866,0.0964 -0.48403,0.206729 -0.82698,0.34056 -1.74793,0.682079 -1.83869,0.64443 -1.81204,-0.75191 0.005,-0.27006 0.0131,-0.488961 0.0344,-0.66167 -0.40398,-0.0119 -0.44397,0.335359 -0.45999,1.17551 -0.0133,0.69817 0.003,1.05675 0.24047,1.15543 z" /><path
             id="path292-5-5-6-2"
             style="fill:#ffffff;stroke-width:0.0957342"
             d="m 131.55685,97.300088 c 0.20141,0.0836 0.59086,-0.0529 1.33112,-0.341791 0.90548,-0.35334 1.25751,-0.51388 1.06089,-0.723659 -0.17674,0.0817 -0.40997,0.17509 -0.70045,0.288439 -1.48051,0.577731 -1.55738,0.54584 -1.53481,-0.63687 0.004,-0.22874 0.0111,-0.41415 0.0291,-0.56043 -0.34217,-0.0101 -0.37604,0.28405 -0.38962,0.995661 -0.0113,0.59135 0.003,0.89507 0.20369,0.97865 z" /></g></g></g></g></svg>
