<svg xmlns="http://www.w3.org/2000/svg" height="40" viewBox="0 96 960 960" width="40"><path d="m706.435 697.616-52.783-52.782q13.377-17.725 21.279-38.37 7.903-20.645 10.663-42.957 2.651-13.536 12.8-22.725 10.149-9.188 22.812-9.188 17.453 0 28.41 11.942 10.956 11.942 8.304 27.71-4.84 34.536-17.975 66.852-13.134 32.315-33.51 59.518ZM578.659 569.652l-68.978-68.55v-214.82q0-16.486-11.293-27.779t-28.019-11.293q-16.885 0-27.978 11.293-11.094 11.293-11.094 27.779V422.29l-74.08-74.079v-71.733q2.631-43.447 35.121-74.234 32.489-30.788 77.992-30.788 47.894 0 81.499 33.458t33.605 81.368v245.312q0 8.522-1.674 19.601-1.674 11.08-5.101 18.457Zm-110.29-110.29Zm325.052 516.674L64.666 247.441q-9.558-9.277-9.558-23.229t9.558-23.51q9.558-9.558 23.036-9.558 13.478 0 23.036 9.558l729.263 729.422q9.558 9.558 9.558 22.956t-9.558 22.956q-9.558 9.558-23.511 9.558-13.952 0-23.069-9.558Zm-359.334-64.282v-96.022q-98.964-11.747-168.558-80.087-69.595-68.341-82.631-164.399-2.652-15.768 8.678-27.71 11.329-11.942 29.083-11.942 12.304 0 22.188 9.272 9.884 9.271 12.536 22.641 12.305 78.37 72.882 130.341 60.578 51.971 141.964 51.971 38.481 0 73.649-12.761t63.644-35.572l52.21 52.209q-31.609 27.073-70.325 43.94-38.716 16.868-82.755 22.097v96.022q0 15.442-10.534 25.942-10.533 10.5-25.866 10.5-15.491 0-25.828-10.5t-10.337-25.942Z"/></svg>