<svg xmlns="http://www.w3.org/2000/svg" height="40" viewBox="0 96 960 960" width="40"><path d="M480 649.753q-48.522 0-81.674-34.463-33.152-34.463-33.152-83.696V285.616q0-47.434 33.493-80.797t81.341-33.363q47.847 0 81.412 33.363 33.565 33.363 33.565 80.797v245.978q0 49.233-33.232 83.696-33.231 34.463-81.753 34.463Zm0-238.934Zm-.083 537.377q-15.456 0-25.828-10.477-10.371-10.477-10.371-25.965v-96.022q-98.964-11.747-168.559-80.087-69.594-68.341-82.63-164.399-2.493-15.768 8.757-27.71t29.004-11.942q12.277 0 22.175 9.272 9.897 9.271 12.549 22.641 12.304 78.37 72.86 130.341 60.556 51.971 142.031 51.971 81.475 0 142.126-51.971 60.651-51.971 72.955-130.341 2.81-13.536 12.86-22.725 10.049-9.188 22.751-9.188 17.51 0 28.438 11.942 10.929 11.942 8.436 27.71-13.036 96.058-82.63 164.399-69.595 68.34-168.559 80.087v96.022q0 15.488-10.455 25.965t-25.91 10.477Zm.1-374.196q16.996 0 28.026-12.375 11.029-12.375 11.029-30.031V285.637q0-16.208-11.301-27.318Q496.47 247.21 480 247.21t-27.771 11.109q-11.301 11.11-11.301 27.318v245.957q0 17.656 11.046 30.031Q463.021 574 480.017 574Z"/></svg>