<?xml version="1.0" encoding="UTF-8" standalone="no"?>
<!-- Created with Inkscape (http://www.inkscape.org/) -->

<svg
   width="123.20591mm"
   height="102.97355mm"
   viewBox="0 0 123.20591 102.97355"
   version="1.1"
   id="svg1"
   xml:space="preserve"
   xmlns="http://www.w3.org/2000/svg"
   xmlns:svg="http://www.w3.org/2000/svg"><defs
     id="defs1" /><g
     id="layer1"
     transform="translate(-1308.5855,197.6603)"><path
       id="rect1-5-5-9-2-49-0"
       style="fill:#000000;stroke-width:0.212258"
       d="m 1314.6559,-197.66031 c -3.3239,0 -6.0001,2.67618 -6.0001,6.00015 v 35.37148 c 0,3.32398 2.6762,6.00015 6.0001,6.00015 h 24.4631 c 3.324,0 6.0001,-2.67617 6.0001,-6.00015 v -35.37148 c 0,-3.32397 -2.6761,-6.00015 -6.0001,-6.00015 z m 43.3358,0 c -3.3239,0 -5.9996,2.67618 -5.9996,6.00015 v 35.37148 c 0,3.32398 2.6757,6.00015 5.9996,6.00015 h 24.4637 c 3.3239,0 6.0001,-2.67617 6.0001,-6.00015 v -35.37148 c 0,-3.32397 -2.6762,-6.00015 -6.0001,-6.00015 z m 43.3364,0 c -3.324,0 -6.0001,2.67618 -6.0001,6.00015 v 35.37148 c 0,3.32398 2.6761,6.00015 6.0001,6.00015 h 24.4636 c 3.324,0 5.9997,-2.67617 5.9997,-6.00015 v -35.37148 c 0,-3.32397 -2.6757,-6.00015 -5.9997,-6.00015 z m -9.5172,47.1196 c -0.2204,-0.004 -0.4263,0.0677 -0.5783,0.21963 l -3.6959,3.6959 c -0.3473,0.34729 -0.2761,0.97754 0.1597,1.41335 l 3.2075,3.20755 c 0.4358,0.43581 1.0661,0.50698 1.4134,0.15968 l 3.6959,-3.69538 c 0.3472,-0.34729 0.2761,-0.97806 -0.1597,-1.41387 l -3.2075,-3.20703 c -0.2452,-0.24515 -0.5519,-0.37499 -0.8351,-0.37983 z m -43.5379,0.16795 c -0.2204,-0.004 -0.4264,0.0682 -0.5783,0.22014 l -3.6959,3.6959 c -0.3473,0.3473 -0.2756,0.97754 0.1602,1.41335 l 3.207,3.20756 c 0.4358,0.4358 1.0666,0.50698 1.4139,0.15968 l 3.6954,-3.6959 c 0.3473,-0.3473 0.2761,-0.97754 -0.1597,-1.41335 l -3.2075,-3.20756 c -0.2452,-0.24514 -0.5519,-0.37498 -0.8351,-0.37982 z m -30.1367,3.57084 c -0.3461,0 -0.6247,0.30141 -0.6247,0.67593 v 5.2e-4 c 0,0.37453 0.2786,0.67593 0.6247,0.67593 h 17.5023 c 0.3461,0 0.6248,-0.3014 0.6248,-0.67593 v -5.2e-4 c 0,-0.37452 -0.2787,-0.67593 -0.6248,-0.67593 z m 43.3364,0 c -0.3462,0 -0.6248,0.30141 -0.6248,0.67593 v 5.2e-4 c 0,0.37453 0.2786,0.67593 0.6248,0.67593 h 17.5023 c 0.3461,0 0.6247,-0.3014 0.6247,-0.67593 v -5.2e-4 c 0,-0.37452 -0.2786,-0.67593 -0.6247,-0.67593 z m 43.3358,0 c -0.3461,0 -0.6247,0.30141 -0.6247,0.67593 v 5.2e-4 c 0,0.37453 0.2786,0.67593 0.6247,0.67593 h 17.5023 c 0.3462,0 0.6248,-0.3014 0.6248,-0.67593 v -5.2e-4 c 0,-0.37452 -0.2786,-0.67593 -0.6248,-0.67593 z m -90.2234,4.7439 c -3.324,0 -5.9996,2.67565 -5.9996,5.99963 v 35.372 c 0,3.32397 2.6756,5.99964 5.9996,5.99964 h 24.4636 c 3.324,0 6.0002,-2.67567 6.0002,-5.99964 v -35.372 c 0,-3.32398 -2.6762,-5.99963 -6.0002,-5.99963 z m 43.4066,0 c -3.3239,0 -5.9996,2.67565 -5.9996,5.99963 v 35.372 c 0,3.32396 2.6757,5.99964 5.9996,5.99964 h 24.4637 c 3.3239,0 6.0001,-2.67568 6.0001,-5.99964 v -35.372 c 0,-3.32398 -2.6762,-5.99963 -6.0001,-5.99963 z m 43.3364,0 c -3.324,0 -6.0001,2.67564 -6.0001,5.99963 v 35.372 c 0,3.32399 2.6761,5.99964 6.0001,5.99964 h 24.4636 c 3.324,0 5.9997,-2.67565 5.9997,-5.99964 v -35.372 c 0,-3.32399 -2.6757,-5.99963 -5.9997,-5.99963 z" /></g></svg>
