<?xml version="1.0" encoding="UTF-8" standalone="no"?>
<!-- Created with Inkscape (http://www.inkscape.org/) -->

<svg
   width="102.97343mm"
   height="123.20599mm"
   viewBox="0 0 102.97343 123.20599"
   version="1.1"
   id="svg1"
   xml:space="preserve"
   xmlns="http://www.w3.org/2000/svg"
   xmlns:svg="http://www.w3.org/2000/svg"><defs
     id="defs1" /><g
     id="layer1"
     transform="translate(-1458.3581,211.02143)"><path
       id="rect1-5-5-9-2-49-0-8"
       style="fill:#000000;stroke-width:0.212258"
       d="m 1561.3315,-204.95099 c 0,-3.32397 -2.6762,-6.00016 -6.0002,-6.00016 h -35.3714 c -3.324,0 -6.0002,2.67619 -6.0002,6.00016 v 24.46311 c 0,3.324 2.6762,6.0001 6.0002,6.0001 h 35.3714 c 3.324,0 6.0002,-2.6761 6.0002,-6.0001 z m 0,43.33581 c 0,-3.3239 -2.6762,-5.9996 -6.0002,-5.9996 h -35.3714 c -3.324,0 -6.0002,2.6757 -6.0002,5.9996 v 24.46373 c 0,3.3239 2.6762,6.0001 6.0002,6.0001 h 35.3714 c 3.324,0 6.0002,-2.6762 6.0002,-6.0001 z m 0,43.33643 c 0,-3.324 -2.6762,-6.0001 -6.0002,-6.0001 h -35.3714 c -3.324,0 -6.0002,2.6761 -6.0002,6.0001 v 24.4636 c 0,3.324 2.6762,5.9997 6.0002,5.9997 h 35.3714 c 3.324,0 6.0002,-2.6757 6.0002,-5.9997 z m -47.1196,-9.5172 c 0,-0.2204 -0.068,-0.4263 -0.2196,-0.5783 l -3.6959,-3.6959 c -0.3473,-0.3473 -0.9776,-0.2761 -1.4134,0.1597 l -3.2075,3.2075 c -0.4358,0.4358 -0.507,1.0661 -0.1597,1.4134 l 3.6954,3.6959 c 0.3473,0.3472 0.978,0.2761 1.4139,-0.1597 l 3.207,-3.2075 c 0.2451,-0.2452 0.375,-0.5519 0.3798,-0.8351 z m -0.168,-43.53793 c 0,-0.2204 -0.068,-0.4264 -0.2201,-0.5783 l -3.6959,-3.6959 c -0.3473,-0.3473 -0.9775,-0.2756 -1.4133,0.1602 l -3.2076,3.207 c -0.4358,0.4358 -0.507,1.0666 -0.1597,1.4139 l 3.6959,3.6954 c 0.3473,0.3473 0.9776,0.2761 1.4134,-0.1597 l 3.2075,-3.2075 c 0.2452,-0.2452 0.375,-0.5519 0.3798,-0.8351 z m -3.5708,-30.13671 c 0,-0.34614 -0.3014,-0.62477 -0.6759,-0.62477 h -5e-4 c -0.3746,0 -0.676,0.27863 -0.676,0.62477 v 17.50231 c 0,0.3461 0.3014,0.6248 0.676,0.6248 h 5e-4 c 0.3745,0 0.6759,-0.2787 0.6759,-0.6248 z m 0,43.33641 c 0,-0.3462 -0.3014,-0.6248 -0.6759,-0.6248 h -5e-4 c -0.3746,0 -0.676,0.2786 -0.676,0.6248 v 17.50233 c 0,0.3461 0.3014,0.6247 0.676,0.6247 h 5e-4 c 0.3745,0 0.6759,-0.2786 0.6759,-0.6247 z m 0,43.33583 c 0,-0.3461 -0.3014,-0.6247 -0.6759,-0.6247 h -5e-4 c -0.3746,0 -0.676,0.2786 -0.676,0.6247 v 17.5023 c 0,0.3462 0.3014,0.6248 0.676,0.6248 h 5e-4 c 0.3745,0 0.6759,-0.2786 0.6759,-0.6248 z m -4.7439,-90.22344 c 0,-3.32399 -2.6756,-5.99964 -5.9996,-5.99964 h -35.372 c -3.324,0 -5.9996,2.67565 -5.9996,5.99964 v 24.46361 c 0,3.324 2.6756,6.0002 5.9996,6.0002 h 35.372 c 3.324,0 5.9996,-2.6762 5.9996,-6.0002 z m 0,43.40661 c 0,-3.3239 -2.6756,-5.9996 -5.9996,-5.9996 h -35.372 c -3.324,0 -5.9996,2.6757 -5.9996,5.9996 v 24.46373 c 0,3.3239 2.6756,6.0001 5.9996,6.0001 h 35.372 c 3.324,0 5.9996,-2.6762 5.9996,-6.0001 z m 0,43.33643 c 0,-3.324 -2.6756,-6.0001 -5.9996,-6.0001 h -35.372 c -3.324,0 -5.9996,2.6761 -5.9996,6.0001 v 24.4636 c 0,3.324 2.6756,5.9997 5.9996,5.9997 h 35.372 c 3.324,0 5.9996,-2.6757 5.9996,-5.9997 z" /></g></svg>
