<?xml version="1.0" encoding="UTF-8" standalone="no"?>
<!-- Created with Inkscape (http://www.inkscape.org/) -->

<svg
   width="40.633694mm"
   height="40.633678mm"
   viewBox="0 0 40.633694 40.633678"
   version="1.1"
   id="svg1"
   xmlns="http://www.w3.org/2000/svg"
   xmlns:svg="http://www.w3.org/2000/svg">
  <defs
     id="defs1" />
  <g
     id="layer1"
     transform="translate(-172.33753,-211.13757)">
    <path
       id="path1-2-0-3"
       style="fill:#4d4d4d;stroke-width:10.436"
       d="m 192.65412,211.13756 a 20.316887,20.316887 0 0 0 -20.31659,20.31658 20.316887,20.316887 0 0 0 20.31659,20.31711 20.316887,20.316887 0 0 0 20.31711,-20.31711 20.316887,20.316887 0 0 0 -20.31711,-20.31658 z m -5.52472,7.82536 c 0.22255,-0.006 0.44758,0.0183 0.67437,0.0791 1.81431,0.48615 2.36743,2.91615 2.85358,4.73046 0.48613,1.81431 1.22223,4.19553 -0.10594,5.5237 -1.32817,1.32817 -3.7094,0.59207 -5.52369,0.10593 -1.81432,-0.48614 -4.24432,-1.03925 -4.73047,-2.85357 -0.48613,-1.81431 1.34196,-3.50823 2.67013,-4.8364 1.16214,-1.16214 2.60415,-2.70688 4.16202,-2.74918 z m 11.04997,0 c 1.55786,0.0423 2.99987,1.58704 4.16202,2.74918 1.32817,1.32817 3.15575,3.02209 2.6696,4.8364 -0.48615,1.81431 -2.91563,2.36743 -4.72994,2.85357 -1.81431,0.48614 -4.19553,1.22224 -5.5237,-0.10593 -1.32815,-1.32817 -0.5926,-3.70939 -0.10645,-5.5237 0.48615,-1.81431 1.03979,-4.24432 2.85409,-4.73046 0.22679,-0.0608 0.45183,-0.0851 0.67438,-0.0791 z m -5.52525,10.62674 a 1.8645011,1.8645011 0 0 1 1.86501,1.865 1.8645011,1.8645011 0 0 1 -1.86501,1.86449 1.8645011,1.8645011 0 0 1 -1.86448,-1.86449 1.8645011,1.8645011 0 0 1 1.86448,-1.865 z m -4.31498,3.27112 c 0.84848,-0.0153 1.6312,0.17082 2.21227,0.75189 1.32817,1.32817 0.59208,3.70938 0.10594,5.52369 -0.48615,1.81431 -1.03927,4.2438 -2.85358,4.72995 -1.8143,0.48614 -3.50823,-1.34144 -4.83639,-2.66961 -1.32817,-1.32816 -3.15626,-3.0221 -2.67013,-4.83639 0.48615,-1.81432 2.91616,-2.36744 4.73047,-2.85358 1.02054,-0.27345 2.22052,-0.62629 3.31142,-0.64595 z m 8.63048,0 c 1.09091,0.0197 2.29088,0.37249 3.31143,0.64595 1.81431,0.48615 4.2438,1.03927 4.72994,2.85358 0.48614,1.8143 -1.34143,3.50822 -2.6696,4.83639 -1.32817,1.32817 -3.02208,3.15575 -4.8364,2.66961 -1.8143,-0.48614 -2.36795,-2.91563 -2.85409,-4.72995 -0.48614,-1.8143 -1.22171,-4.19552 0.10645,-5.52369 0.58108,-0.58107 1.36379,-0.76717 2.21227,-0.75189 z" />
  </g>
</svg>
