<?xml version="1.0" encoding="UTF-8" standalone="no"?>
<!-- Created with Inkscape (http://www.inkscape.org/) -->

<svg
   width="40.633694mm"
   height="40.633698mm"
   viewBox="0 0 40.633694 40.633698"
   version="1.1"
   id="svg1"
   xmlns="http://www.w3.org/2000/svg"
   xmlns:svg="http://www.w3.org/2000/svg">
  <defs
     id="defs1" />
  <g
     id="layer1"
     transform="translate(-91.198054,-244.03626)">
    <path
       id="path1-2-0-3-4"
       style="fill:#4d4d4d;stroke-width:10.436"
       d="m 111.51516,244.03627 a 20.316887,20.316887 0 0 0 -20.317109,20.31659 20.316887,20.316887 0 0 0 20.317109,20.3171 20.316887,20.316887 0 0 0 20.31659,-20.3171 20.316887,20.316887 0 0 0 -20.31659,-20.31659 z m -8.55865,8.739 c 1.0909,0.0197 2.29088,0.37198 3.31142,0.64544 1.81432,0.48614 4.2438,1.03978 4.72995,2.85409 0.48614,1.8143 -1.34144,3.50823 -2.66961,4.83639 -1.32817,1.32817 -3.02208,3.15575 -4.8364,2.66961 -1.81429,-0.48614 -2.36742,-2.91615 -2.85357,-4.73046 -0.48613,-1.81431 -1.222231,-4.19501 0.10594,-5.52318 0.58107,-0.58107 1.36379,-0.76718 2.21227,-0.75189 z m 17.11678,0 c 0.84848,-0.0153 1.6312,0.17082 2.21227,0.75189 1.32816,1.32816 0.59259,3.70887 0.10645,5.52318 -0.48614,1.81431 -1.03977,4.24432 -2.85409,4.73046 -1.8143,0.48614 -3.50824,-1.34144 -4.83639,-2.66961 -1.32817,-1.32816 -3.15575,-3.0221 -2.66961,-4.83639 0.48615,-1.81431 2.91564,-2.36795 4.72995,-2.85409 1.02054,-0.27346 2.22052,-0.62579 3.31142,-0.64544 z m -8.55813,9.26197 a 2.3156836,2.3156836 0 0 1 2.31562,2.31613 2.3156836,2.3156836 0 0 1 -2.31562,2.31562 2.3156836,2.3156836 0 0 1 -2.31614,-2.31562 2.3156836,2.3156836 0 0 1 2.31614,-2.31613 z m -7.34891,2.80861 c 1.55787,0.0423 2.99988,1.58704 4.16202,2.74919 1.32817,1.32816 3.15575,3.02209 2.66961,4.83639 -0.48615,1.81431 -2.91563,2.36743 -4.72995,2.85358 -1.81431,0.48614 -4.19552,1.22223 -5.52369,-0.10594 -1.328165,-1.32816 -0.59209,-3.70939 -0.10594,-5.52369 0.48614,-1.81432 1.03927,-4.24432 2.85357,-4.73047 0.22679,-0.0608 0.45183,-0.0851 0.67438,-0.0791 z m 14.6973,0 c 0.22255,-0.006 0.44759,0.0183 0.67437,0.0791 1.81432,0.48615 2.36795,2.91615 2.85409,4.73047 0.48615,1.8143 1.22172,4.19552 -0.10645,5.52369 -1.32817,1.32817 -3.70939,0.59208 -5.52369,0.10594 -1.81431,-0.48615 -4.2438,-1.03927 -4.72995,-2.85358 -0.48614,-1.81431 1.34144,-3.50823 2.66961,-4.83639 1.16213,-1.16215 2.60416,-2.70688 4.16202,-2.74919 z" />
  </g>
</svg>
