<?xml version="1.0" encoding="UTF-8" standalone="no"?>
<!-- Created with Inkscape (http://www.inkscape.org/) -->

<svg
   width="40.633698mm"
   height="40.633698mm"
   viewBox="0 0 40.633698 40.633698"
   version="1.1"
   id="svg1"
   xmlns="http://www.w3.org/2000/svg"
   xmlns:svg="http://www.w3.org/2000/svg">
  <defs
     id="defs1" />
  <g
     id="layer1"
     transform="translate(-0.82875188,-147.54638)">
    <path
       id="path1-2-1"
       style="fill:#4d4d4d;stroke-width:10.436"
       d="M 21.145342,147.54637 A 20.316887,20.316887 0 0 0 0.82875192,167.86296 20.316887,20.316887 0 0 0 21.145342,188.18007 20.316887,20.316887 0 0 0 41.462452,167.86296 20.316887,20.316887 0 0 0 21.145342,147.54637 Z m 0,7.37785 c 2.28497,0 3.70012,2.6808 4.8426,4.65966 0.28732,0.49765 0.60455,1.03267 0.9002,1.58595 0.41741,-0.0736 0.8425,-0.0679 1.27331,0.0475 2.20711,0.5914 2.88022,3.54706 3.47162,5.75417 0.59139,2.20713 1.48654,5.10376 -0.12919,6.71949 -1.11447,1.11446 -2.83813,1.03422 -4.52479,0.68316 -0.32185,0.61735 -0.6727,1.2163 -0.99115,1.76785 -1.14248,1.97886 -2.55763,4.65967 -4.8426,4.65967 -2.28499,0 -3.70011,-2.68081 -4.8426,-4.65967 -0.31845,-0.55155 -0.6693,-1.1505 -0.99115,-1.76785 -1.68666,0.35106 -3.41033,0.4313 -4.52479,-0.68316 -1.6157404,-1.61573 -0.72057,-4.51236 -0.12919,-6.71949 0.59141,-2.20711 1.2645,-5.16277 3.47162,-5.75417 0.27589,-0.0739 0.54937,-0.10399 0.82011,-0.0966 0.15198,0.004 0.3026,0.0237 0.45268,0.0501 0.2958,-0.55364 0.61322,-1.08903 0.90072,-1.58698 1.14249,-1.97886 2.55761,-4.65966 4.8426,-4.65966 z" />
  </g>
</svg>
