<?xml version="1.0" encoding="UTF-8" standalone="no"?>
<!-- Created with Inkscape (http://www.inkscape.org/) -->

<svg
   width="40.633698mm"
   height="40.63369mm"
   viewBox="0 0 40.633698 40.63369"
   version="1.1"
   id="svg1"
   xmlns="http://www.w3.org/2000/svg"
   xmlns:svg="http://www.w3.org/2000/svg">
  <defs
     id="defs1" />
  <g
     id="layer1"
     transform="translate(-45.031606,-119.29901)">
    <path
       id="path1-2-7"
       style="fill:#4d4d4d;stroke-width:10.436"
       d="M 65.348714,119.29901 A 20.316887,20.316887 0 0 0 45.031607,139.6156 20.316887,20.316887 0 0 0 65.348714,159.9327 20.316887,20.316887 0 0 0 85.665302,139.6156 20.316887,20.316887 0 0 0 65.348714,119.29901 Z m -5.17e-4,7.0683 c 2.00354,0 3.244477,2.35094 4.246252,4.08606 0.424603,0.73544 0.921842,1.5635 1.279509,2.40553 1.879346,-0.50848 4.190685,-1.11543 5.519559,0.21343 1.41671,1.41672 0.631725,3.95688 0.113172,5.89214 -0.153418,0.57256 -0.314213,1.20221 -0.513147,1.81902 0.171647,0.55538 0.314979,1.11544 0.452685,1.62935 0.518558,1.93527 1.303544,4.47491 -0.113171,5.89163 -1.416715,1.41671 -3.955843,0.63173 -5.891113,0.11317 -1.921232,-0.51479 -4.488784,-1.10098 -5.033285,-3.00291 -0.03897,-0.004 -0.07787,-0.007 -0.116272,-0.0124 -0.536565,1.91218 -3.111339,2.49937 -5.036902,3.01532 -1.935271,0.51855 -4.475432,1.30355 -5.892146,-0.11317 -1.416715,-1.41672 -0.631725,-3.95635 -0.113172,-5.89163 0.137738,-0.51404 0.281493,-1.07434 0.453202,-1.62987 -0.19887,-0.61668 -0.359764,-1.24606 -0.513147,-1.8185 -0.518553,-1.93526 -1.303026,-4.47543 0.113689,-5.89214 1.328745,-1.32875 3.639268,-0.72238 5.518526,-0.21394 0.357657,-0.8419 0.855483,-1.66969 1.280025,-2.40502 1.001766,-1.73512 2.242196,-4.08606 4.245736,-4.08606 z" />
  </g>
</svg>
