<?xml version="1.0" encoding="UTF-8" standalone="no"?>
<!-- Created with Inkscape (http://www.inkscape.org/) -->

<svg
   width="40.633694mm"
   height="40.633713mm"
   viewBox="0 0 40.633694 40.633713"
   version="1.1"
   id="svg1"
   xmlns="http://www.w3.org/2000/svg"
   xmlns:svg="http://www.w3.org/2000/svg">
  <defs
     id="defs1" />
  <g
     id="layer1"
     transform="translate(-30.554167,-189.26806)">
    <path
       id="path1-2-2"
       style="fill:#4d4d4d;stroke-width:10.436"
       d="M 22.904849,229.46903 A 20.316887,20.316887 0 0 0 2.5882601,249.78562 20.316887,20.316887 0 0 0 22.904849,270.10273 20.316887,20.316887 0 0 0 43.221955,249.78562 20.316887,20.316887 0 0 0 22.904849,229.46903 Z m 0,7.37785 c 1.417629,0 2.499852,1.03224 3.390491,2.28823 0.08185,-0.0217 0.168534,-0.0447 0.248564,-0.0661 2.207127,-0.5914 5.103758,-1.48654 6.719486,0.12919 1.615729,1.61573 0.720591,4.51236 0.129191,6.71949 -0.591399,2.20713 -1.264495,5.1633 -3.471622,5.75469 -0.15031,0.0403 -0.299682,0.0665 -0.448552,0.0817 0.917079,1.94739 -0.62302,4.40211 -1.724959,6.31072 -1.142489,1.97886 -2.557621,4.65967 -4.842599,4.65967 -2.284987,0 -3.700109,-2.68081 -4.842598,-4.65967 -1.101939,-1.90862 -2.642069,-4.36333 -1.724959,-6.31072 -0.14887,-0.0152 -0.298242,-0.0415 -0.448552,-0.0817 -2.207128,-0.59139 -2.880223,-3.54756 -3.471623,-5.75469 -0.591389,-2.20713 -1.486537,-5.10376 0.129191,-6.71949 1.615729,-1.61573 4.512359,-0.72059 6.719487,-0.12919 0.07992,0.0214 0.166307,0.0444 0.248047,0.0661 0.890629,-1.25599 1.973369,-2.28823 3.391007,-2.28823 z" />
    <path
       id="path1-2-9"
       style="fill:#4d4d4d;stroke-width:10.436"
       d="m 50.870757,189.26807 a 20.316887,20.316887 0 0 0 -20.31659,20.31711 20.316887,20.316887 0 0 0 20.31659,20.31659 20.316887,20.316887 0 0 0 20.317106,-20.31659 20.316887,20.316887 0 0 0 -20.317106,-20.31711 z m 0,7.37784 c 2.284977,0 3.700109,2.68134 4.842598,4.66018 1.101869,1.9085 2.641698,4.36288 1.724959,6.31021 0.14887,0.0153 0.298242,0.0419 0.448552,0.0822 2.207128,0.59139 2.880223,3.54704 3.471623,5.75417 0.591399,2.20713 1.486537,5.10376 -0.129192,6.71949 -1.615728,1.61573 -4.511851,0.72059 -6.718969,0.12919 -0.08003,-0.0214 -0.166714,-0.0444 -0.248564,-0.0661 -0.890629,1.25599 -1.973379,2.28875 -3.391007,2.28875 -1.417639,0 -2.499852,-1.03276 -3.390491,-2.28875 -0.08184,0.0217 -0.168534,0.0447 -0.248564,0.0661 -2.207128,0.5914 -5.103758,1.48654 -6.719486,-0.12919 -1.615719,-1.61573 -0.720581,-4.51236 -0.129191,-6.71949 0.591399,-2.20713 1.264495,-5.16278 3.471622,-5.75417 0.15049,-0.0403 0.300039,-0.0669 0.449069,-0.0822 -0.916729,-1.94733 0.622573,-4.40171 1.724442,-6.31021 1.142489,-1.97884 2.557611,-4.66018 4.842599,-4.66018 z" />
  </g>
</svg>
