<?xml version="1.0" encoding="UTF-8" standalone="no"?>
<!-- Created with Inkscape (http://www.inkscape.org/) -->

<svg
   width="131.77592mm"
   height="128.50482mm"
   viewBox="0 0 131.77592 128.50482"
   version="1.1"
   id="svg1"
   xml:space="preserve"
   xmlns="http://www.w3.org/2000/svg"
   xmlns:svg="http://www.w3.org/2000/svg"><defs
     id="defs1" /><g
     id="layer1"
     transform="translate(-665.13728,267.73623)"><path
       id="rect1-5-5-9-2-4"
       style="fill:#000000;stroke-width:0.443449"
       d="m 675.1372,-267.73622 c -5.53998,0 -9.9999,4.45992 -9.9999,9.99991 v 65.46163 c 0,5.54 4.45992,10.00043 9.9999,10.00043 h 68.21961 c 5.53998,0 9.99991,-4.46043 9.99991,-10.00043 v -65.46163 c 0,-5.53999 -4.45993,-9.99991 -9.99991,-9.99991 z m 89.37594,0 c -1.57036,0 -2.83497,1.78139 -2.83497,3.99407 v 23.68176 c 0,2.21268 1.26461,3.99355 2.83497,3.99355 h 29.56564 c 1.57036,0 2.83445,-1.78087 2.83445,-3.99355 v -23.68176 c 0,-2.21268 -1.26409,-3.99407 -2.83445,-3.99407 z m 0,39.64306 c -1.57036,0 -2.83497,1.78139 -2.83497,3.99407 v 23.68124 c 0,2.21269 1.26461,3.99407 2.83497,3.99407 h 29.56564 c 1.57036,0 2.83445,-1.78138 2.83445,-3.99407 v -23.68124 c 0,-2.21268 -1.26409,-3.99407 -2.83445,-3.99407 z m -2.79621,40.58822 a 17.840322,17.840322 0 0 1 -15.22853,14.64975 v 33.51888 a 48.168743,48.168743 0 0 0 48.16864,-48.16863 z m -92.58556,13.03796 c -2.21268,0 -3.99407,1.2646 -3.99407,2.83497 v 29.56564 c 0,1.57037 1.78139,2.83497 3.99407,2.83497 h 23.68124 c 2.21269,0 3.99407,-1.2646 3.99407,-2.83497 v -29.56564 c 0,-1.57037 -1.78138,-2.83497 -3.99407,-2.83497 z m 39.64254,0 c -2.21268,0 -3.99355,1.2646 -3.99355,2.83497 v 29.56564 c 0,1.57037 1.78087,2.83497 3.99355,2.83497 h 23.68176 c 2.21269,0 3.99407,-1.2646 3.99407,-2.83497 v -29.56564 c 0,-1.57037 -1.78138,-2.83497 -3.99407,-2.83497 z" /></g></svg>
