<?xml version="1.0" encoding="UTF-8" standalone="no"?>
<!-- Created with Inkscape (http://www.inkscape.org/) -->

<svg
   width="58.030567mm"
   height="52.235668mm"
   viewBox="0 0 58.030567 52.235668"
   version="1.1"
   id="svg1"
   xmlns="http://www.w3.org/2000/svg"
   xmlns:svg="http://www.w3.org/2000/svg">
  <defs
     id="defs1" />
  <g
     id="layer1"
     transform="translate(-44.943231,-98.021985)">
    <path
       id="path1-5"
       style="fill:#000000;stroke-width:10.436"
       d="m 84.24316,98.022709 c 1.16722,0.01836 2.43621,0.386078 3.853,1.204061 9.06746,5.2351 -0.863,14.44405 -0.863,24.91425 0,10.4702 9.93046,19.67916 0.863,24.91424 -4.89458,2.8259 -8.02542,0.26714 -11.29544,-3.49901 -2.87627,2.16616 -1.59353,5.46711 -5.25704,1.82779 -3.8074,-3.78225 -0.0842,-2.27239 2.03915,-5.63014 -1.52532,-1.77077 -3.18838,-3.51833 -5.13767,-4.92425 -3.5888,2.85893 -0.81374,6.70316 -5.56038,3.63285 -4.55574,-2.9468 -0.46214,-2.18751 0.87901,-6.05183 -2.47266,-0.87886 -5.06996,-1.34318 -7.52305,-1.7632 -1.93059,3.12385 0.58068,5.75375 -4.223,3.74965 -4.35463,-1.81676 -1.7738,-2.04006 -0.61082,-4.72478 -3.77326,-1.00661 -6.46369,-2.76813 -6.46369,-7.53132 0,-5.35014 3.38763,-6.91896 7.90185,-7.87704 -1.14617,-2.75743 -3.81699,-2.96888 0.57877,-4.80281 4.88373,-2.03751 2.20598,0.71473 4.32274,3.90622 2.46267,-0.44306 5.0055,-0.99042 7.38404,-2.02468 -1.37851,-3.74345 -5.3529,-3.02764 -0.83974,-5.94692 4.55566,-2.94674 2.1845,0.4758 5.15886,3.28352 1.9054,-1.56008 3.53867,-3.41929 5.05602,-5.23379 -2.14021,-2.5077 -5.087,-1.46305 -1.55598,-4.97076 3.38827,-3.365935 2.54541,-0.795155 4.67465,1.32395 2.04241,-2.212975 4.09227,-3.815734 6.61872,-3.776001 z m 12.59458,13.845151 a 6.1360126,12.272025 0 0 1 6.13606,12.27212 6.1360126,12.272025 0 0 1 -6.13606,12.27212 6.1360126,12.272025 0 0 1 -6.13606,-12.27212 6.1360126,12.272025 0 0 1 6.13606,-12.27212 z m -19.57348,1.24592 c -2.6612,-0.0419 -4.07065,4.21839 -7.30085,6.08335 -3.82836,2.21031 -9.29194,0.52325 -9.29194,4.94389 0,4.42062 5.46358,2.73357 9.29194,4.94388 3.82839,2.21032 5.09925,7.78569 8.92762,5.57537 3.82838,-2.21031 -0.36432,-6.09863 -0.36432,-10.51925 0,-4.42064 4.1927,-8.30895 0.36432,-10.51926 -0.59819,-0.34537 -1.13395,-0.50023 -1.62677,-0.50798 z m -2.77399,5.7919 c 0.23391,0.004 0.48812,0.0774 0.77204,0.24133 1.81713,1.04912 -0.1726,2.89474 -0.1726,4.99297 0,2.09824 1.98973,3.94386 0.1726,4.99298 -1.81711,1.04912 -2.42034,-1.59723 -4.23746,-2.64635 -1.81713,-1.04912 -4.41007,-0.24839 -4.41007,-2.34663 0,-2.09823 2.59294,-1.2975 4.41007,-2.34662 1.5332,-0.8852 2.20229,-2.90755 3.46542,-2.88768 z" />
  </g>
</svg>
