<?xml version="1.0" encoding="UTF-8" standalone="no"?>
<!-- Created with Inkscape (http://www.inkscape.org/) -->

<svg
   width="110.02455mm"
   height="119.3401mm"
   viewBox="0 0 110.02455 119.3401"
   version="1.1"
   id="svg1"
   xml:space="preserve"
   xmlns="http://www.w3.org/2000/svg"
   xmlns:svg="http://www.w3.org/2000/svg"><defs
     id="defs1" /><g
     id="layer1"
     transform="translate(-1072.4365,206.97288)"><g
       id="g10"
       transform="matrix(-0.71789848,0.41447888,0.41447888,0.71789848,858.57283,-391.37833)"><path
         style="fill:#000000;fill-opacity:1;fill-rule:evenodd;stroke:#000000;stroke-width:0.264583"
         id="path8"
         d="m -766.62305,169.12654 c 0.43016,0.82692 -1.20804,0.97656 -1.60874,0.83685 -2.21806,-0.77336 -1.86069,-3.83402 -0.72563,-5.32442 2.61312,-3.4312 7.78545,-2.50062 10.51199,0.23368 4.77336,4.78696 3.10085,12.66647 -1.6659,16.77192 -7.26848,6.2601 -18.31054,3.69241 -23.92829,-3.45815 -7.8801,-10.0302 -4.28665,-24.61679 5.55041,-31.87123 13.04794,-9.62234 31.51593,-4.88866 40.52326,7.9043 11.47784,16.3018 5.50106,38.95658 -10.49275,49.82593 -19.77539,13.43929 -46.89858,6.12525 -59.733,-13.2954 -15.50066,-23.45511 -6.76204,-55.30947 16.29625,-70.20679 27.32944,-17.65678 64.1623,-7.41184 81.21573,19.48232 19.90328,31.38853 8.07487,73.43421 -22.84281,92.73296 -35.62381,22.2363 -83.1055,8.75123 -104.73518,-26.36855 -24.65245,-40.02778 -9.44091,-93.15897 30.05164,-117.202027 44.59377,-27.148685 103.57942,-10.14382 130.11541,33.885217 29.72229,49.31583 10.85988,114.3533 -37.86318,143.45916 -54.18859,32.37082 -125.46844,11.58897 -157.21873,-41.9801 -35.092,-59.20721 -12.33094,-136.91381 46.23111,-171.380914 64.36725,-37.88379 148.67938,-13.085636 185.93368,50.611814 40.74428,69.66464 13.8529,160.75592 -55.11821,200.86596"
         transform="matrix(0.4529991,0.26153915,-0.26153915,0.4529991,250.18248,538.89558)" /><ellipse
         style="fill:#000000;fill-opacity:1;stroke-width:10.9884"
         id="path10"
         cx="-144.70859"
         cy="483.62073"
         rx="10.077846"
         ry="11.172874" /><ellipse
         style="fill:#000000;fill-opacity:1;stroke-width:10.4408"
         id="path10-4"
         cx="-144.37494"
         cy="462.41779"
         rx="10.077846"
         ry="10.086859" /><ellipse
         style="fill:#000000;fill-opacity:1;stroke-width:9.61276"
         id="path10-4-4"
         cx="-143.23642"
         cy="444.02826"
         rx="10.077846"
         ry="8.5503635" /><ellipse
         style="fill:#000000;fill-opacity:1;stroke-width:8.5901"
         id="path10-4-4-8"
         cx="-144.09483"
         cy="429.00125"
         rx="10.077846"
         ry="6.827858" /><ellipse
         style="fill:#000000;fill-opacity:1;stroke-width:7.03233"
         id="path10-4-4-8-8"
         cx="-139.6657"
         cy="415.7027"
         rx="6.6039786"
         ry="6.9831052" /></g></g></svg>
