<?xml version="1.0" encoding="UTF-8" standalone="no"?>
<!-- Created with Inkscape (http://www.inkscape.org/) -->

<svg
   width="40.633766mm"
   height="40.63377mm"
   viewBox="0 0 40.633766 40.63377"
   version="1.1"
   id="svg1"
   xmlns="http://www.w3.org/2000/svg"
   xmlns:svg="http://www.w3.org/2000/svg">
  <defs
     id="defs1" />
  <g
     id="layer1"
     transform="translate(-135.32015,-69.73419)">
    <circle
       style="fill:#4d4d4d;stroke-width:10.436"
       id="path1-2"
       cx="155.63702"
       cy="90.051071"
       r="20.316887" />
    <path
       id="path1-2-02"
       style="fill:#4d4d4d;stroke-width:10.436"
       d="m 185.28223,110.33332 a 20.316887,20.316887 0 0 0 -20.31711,20.3171 20.316887,20.316887 0 0 0 20.31711,20.31659 20.316887,20.316887 0 0 0 20.31711,-20.31659 20.316887,20.316887 0 0 0 -20.31711,-20.3171 z m -10.98796,17.07027 h 11.37863 c -0.011,0.16784 -0.0111,0.33426 -0.002,0.49868 h 0.0176 c -0.004,0.0677 -0.001,0.13382 -0.002,0.20102 0.0415,0.38043 0.14309,0.74899 0.32039,1.09916 1.00183,1.97886 3.65851,1.86397 5.66219,1.86397 2.00368,0 4.65981,0.11489 5.66167,-1.86397 0.23267,-0.45951 0.33307,-0.95071 0.34107,-1.45883 0.80688,0.42738 1.34772,1.216 1.34772,2.12442 0,0.055 -0.005,0.10868 -0.009,0.16278 0.0165,0.10966 0.0243,0.222 0.0243,0.3359 0,0.0871 -0.005,0.17307 -0.015,0.25786 0,0.0139 0.003,0.0273 0.003,0.0413 0,0.0985 -0.008,0.19502 -0.0207,0.29042 0.004,0.0548 0.0124,0.10863 0.0124,0.16433 0,0.11845 -0.0123,0.23389 -0.03,0.34778 -0.0212,1.34855 -1.22939,2.42879 -2.72955,2.42879 H 184.9146 c 0.0383,-0.62461 -0.052,-1.22882 -0.33435,-1.78645 -1.00182,-1.97886 -3.65849,-1.86397 -5.66218,-1.86397 -2.00367,0 -4.65983,-0.11489 -5.66167,1.86397 -0.16168,0.31933 -0.25656,0.65533 -0.30386,1.00045 -0.003,0.0514 -0.009,0.1022 -0.01,0.154 -0.003,-0.001 -0.006,-0.003 -0.009,-0.005 -0.01,0.1052 -0.0181,0.2105 -0.0191,0.3173 -0.82772,-0.42252 -1.38545,-1.22206 -1.38545,-2.14458 0,-0.0986 0.008,-0.19543 0.0207,-0.29093 -0.005,-0.0547 -0.0129,-0.10822 -0.0129,-0.16382 0,-0.0786 0.006,-0.15594 0.014,-0.23254 -0.002,-0.0413 -0.009,-0.0816 -0.009,-0.12351 0,-0.0986 0.008,-0.19544 0.0207,-0.29094 -0.005,-0.0547 -0.0124,-0.10821 -0.0124,-0.16381 0,-0.0871 0.005,-0.17317 0.015,-0.25787 0,-0.0139 -0.003,-0.0273 -0.003,-0.0413 0,-1.36527 1.21813,-2.46445 2.73162,-2.46445 z" />
  </g>
</svg>
