<?xml version="1.0" encoding="UTF-8" standalone="no"?>
<!-- Created with Inkscape (http://www.inkscape.org/) -->

<svg
   width="40.633694mm"
   height="40.634212mm"
   viewBox="0 0 40.633694 40.634212"
   version="1.1"
   id="svg1"
   xmlns="http://www.w3.org/2000/svg"
   xmlns:svg="http://www.w3.org/2000/svg">
  <defs
     id="defs1" />
  <g
     id="layer1"
     transform="translate(-3.1004625,-93.963727)">
    <path
       id="path1"
       style="fill:#4d4d4d;stroke-width:10.436"
       d="M 23.417053,93.963728 A 20.316887,20.316887 0 0 0 3.1004626,114.28084 20.316887,20.316887 0 0 0 23.417053,134.59794 20.316887,20.316887 0 0 0 43.734158,114.28084 20.316887,20.316887 0 0 0 23.417053,93.963728 Z m 0,5.56194 c 1.022661,9e-5 2.045295,0.39165 2.828767,1.175122 l 0.387574,0.38757 c -0.663011,1.2269 -1.039236,2.76969 -1.387512,4.06952 -0.512686,1.91338 -1.239112,4.31312 -0.56379,6.06785 1.718676,-0.76296 2.902212,-2.97392 3.892785,-4.68964 0.672922,-1.16554 1.497337,-2.52215 1.896009,-3.85868 h 0.548803 c 2.215994,0 4.000273,1.78479 4.000273,4.00079 v 0.5488 c -1.336377,0.39873 -2.692766,1.22316 -3.858163,1.89601 -1.715717,0.99058 -3.926162,2.17423 -4.689119,3.89279 1.754674,0.67502 4.154112,-0.0512 6.06733,-0.56379 1.299815,-0.3483 2.842103,-0.72502 4.069002,-1.38803 l 0.38809,0.38809 c 1.566949,1.56695 1.567456,4.09059 5.17e-4,5.65754 l -0.38809,0.38809 c -1.22697,-0.66317 -2.769018,-1.03918 -4.069002,-1.38752 -1.913607,-0.51274 -4.313163,-1.23943 -6.067847,-0.56379 0.763145,1.71844 2.973553,2.90127 4.689119,3.89176 1.165397,0.67283 2.521786,1.49727 3.858163,1.896 v 0.54881 c 0,2.216 -1.784279,4.00079 -4.000273,4.00079 h -0.548803 c -0.39867,-1.33653 -1.222575,-2.69366 -1.895492,-3.8592 -0.990574,-1.71572 -2.174108,-3.92577 -3.892786,-4.6886 -0.675318,1.75472 0.05111,4.15448 0.56379,6.06784 0.348335,1.29999 0.724864,2.84257 1.388029,4.06952 l -0.38809,0.38809 c -1.566945,1.56695 -4.090589,1.56644 -5.657536,-5.1e-4 l -0.38809,-0.38809 c 0.663019,-1.2269 1.039228,-2.76917 1.387513,-4.06901 0.51274,-1.91359 1.238927,-4.31315 0.563273,-6.06784 -1.718197,0.7632 -2.90135,2.97318 -3.891752,4.6886 -0.67292,1.16554 -1.497329,2.52267 -1.896009,3.8592 h -0.548803 c -2.215994,0 -4.000273,-1.78479 -4.000273,-4.00079 v -0.54829 c 1.336377,-0.39873 2.693282,-1.22316 3.858679,-1.89601 1.715567,-0.99049 3.925973,-2.17331 4.68912,-3.89175 -1.754775,-0.67574 -4.154759,0.0505 -6.068364,0.56327 -1.299834,0.34829 -2.84158,0.7245 -4.068485,1.38752 l -0.3880904,-0.38809 c -1.566946,-1.56695 -1.567461,-4.09059 -5.17e-4,-5.65754 l 0.3880904,-0.38809 c 1.22697,0.66317 2.769018,1.04022 4.069002,1.38855 1.913766,0.51278 4.313638,1.23887 6.068364,0.56275 -0.763147,-1.71842 -2.973553,-2.90178 -4.68912,-3.89227 -1.165397,-0.67283 -2.522302,-1.49676 -3.858679,-1.89549 v -0.54932 c 0,-2.216 1.784279,-4.00079 4.000273,-4.00079 h 0.548803 c 0.398672,1.33653 1.223087,2.69314 1.896009,3.85868 0.990573,1.71572 2.173718,3.92668 3.892269,4.68964 0.675407,-1.75463 -0.05111,-4.15447 -0.56379,-6.06785 -0.348336,-1.29999 -0.724871,-2.84254 -1.388029,-4.06952 l 0.38809,-0.38809 c 0.783472,-0.783472 1.806106,-1.174702 2.828768,-1.174602 z" />
  </g>
</svg>
